<svg width="32" height="39" viewBox="0 0 32 39" fill="none" xmlns="http://www.w3.org/2000/svg">
<path d="M23.6387 37H5.31909C3.49155 37 2.15136 35.5158 2.32304 33.6883L5.03665 5.31171C5.21386 3.48417 6.83649 2 8.66402 2H26.9892C28.8167 2 30.1569 3.48417 29.9852 5.31171L27.2716 33.6883C27.0944 35.5158 25.4718 37 23.6442 37H23.6387Z" fill="#A594F7" stroke="#6748F9" stroke-width="2.96" stroke-linecap="round" stroke-linejoin="round"/>
<path d="M13.6929 12.7328H20.675C21.2141 12.7328 21.6724 12.9484 21.9959 13.2989L25.5274 10.0819C24.9972 9.49785 24.2244 9.13843 23.3348 9.13843H11.725C10.8354 9.13843 9.99072 9.49785 9.35272 10.0819L12.2642 13.2989C12.6505 12.9484 13.1538 12.7328 13.6929 12.7328Z" stroke="white" stroke-miterlimit="10"/>
<path d="M26.2546 12.3645C26.3355 11.4749 26.0569 10.6661 25.5268 10.082L21.9953 13.299C22.3098 13.6494 22.4805 14.1347 22.4356 14.6738L21.582 23.5968H10.718L11.5717 14.6738C11.6256 14.1347 11.8862 13.6494 12.2726 13.299L9.36112 10.082C8.72312 10.6661 8.28281 11.4749 8.20194 12.3645L6.78217 27.2002H24.8438L26.2636 12.3645H26.2546Z" stroke="white" stroke-miterlimit="10"/>
<path d="M13.6926 12.7327C13.1535 12.7327 12.6502 12.9483 12.2639 13.2988C11.8775 13.6492 11.6169 14.1345 11.563 14.6736L10.7093 23.5966H21.5732L22.4269 14.6736C22.4808 14.1345 22.3101 13.6492 21.9866 13.2988C21.6631 12.9483 21.2048 12.7327 20.6657 12.7327H13.6836H13.6926Z" stroke="white" stroke-miterlimit="10"/>
<path d="M10.7186 23.5966L6.7738 27.1999" stroke="white" stroke-miterlimit="10"/>
<path d="M24.8356 27.1999L21.5827 23.5966" stroke="white" stroke-miterlimit="10"/>
</svg>
