<svg width="130" height="110" viewBox="0 0 130 110" fill="none" xmlns="http://www.w3.org/2000/svg">
<g clip-path="url(#clip0_57_10769)">
<path d="M57.0171 5.93705C57.2578 5.99054 57.3915 6.151 57.5252 6.25797C63.5425 11.2323 69.5865 16.1798 75.6038 21.1541C76.4596 21.8762 77.3422 22.5982 78.1979 23.2936C78.4386 23.5075 78.4921 23.5877 78.1979 23.8284C71.9132 28.9899 65.6285 34.1782 59.3438 39.3396C58.595 39.9547 57.8462 40.5698 57.0706 41.2117C56.9369 41.0512 56.9904 40.8908 56.9904 40.7303C56.9904 37.7083 56.9904 34.6595 56.9904 31.6375C56.9904 31.2631 56.9101 31.1294 56.509 31.1294C51.2673 31.3166 46.079 31.9852 41.0513 33.5631C37.4409 34.6863 34.0177 36.1572 30.862 38.2966C29.7923 39.0187 28.8028 39.8478 27.84 40.7303C23.6413 44.5814 20.7797 49.2882 18.9612 54.6637C18.7472 55.3055 18.5867 55.9473 18.3995 56.5892C18.3728 56.6962 18.3995 56.8566 18.2658 56.8834C18.1321 56.9101 18.0251 56.7764 17.9716 56.6694C17.624 56.1345 17.4635 55.4927 17.2763 54.8776C16.6077 52.3102 16.6077 49.7161 16.9554 47.122C17.6775 41.7466 19.4425 36.7455 22.4378 32.1724C25.861 26.9307 30.5678 23.2133 36.1572 20.539C40.8641 18.3193 45.8116 17.0088 50.9731 16.4205C52.8184 16.2065 54.6904 16.0461 56.5357 15.9926C56.9101 15.9926 56.9904 15.8589 56.9904 15.4845C56.9904 12.4892 56.9904 9.46719 56.9904 6.47192C56.9904 6.31146 56.9904 6.12426 56.9904 5.91031L57.0171 5.93705Z" fill="#FFA015"/>
<path d="M8.02309 0.427895C8.18355 0.347665 8.29052 0.374409 8.42424 0.374409C13.666 0.267435 18.8809 0.160461 24.1227 0.0534869C24.8715 0.0534869 25.6203 0.0534869 26.3691 0C26.5831 0 26.6365 0.0267435 26.6098 0.267435C25.6738 5.64287 24.7378 11.0183 23.775 16.3937C23.668 17.0356 23.561 17.6774 23.4273 18.346C23.2936 18.3193 23.2401 18.2123 23.1866 18.1321C21.8762 16.581 20.539 15.0566 19.2286 13.5055C19.0681 13.3182 18.9612 13.2648 18.774 13.452C16.1798 15.8321 13.8532 18.4263 11.9811 21.4215C10.6439 23.561 9.54747 25.8074 8.85214 28.2678C8.61145 29.0969 8.47773 29.9527 8.37076 30.8352C7.91612 34.6328 8.53122 38.2699 9.92188 41.8C10.0823 42.2279 10.2963 42.6291 10.4835 43.0302C10.5102 43.1105 10.5905 43.164 10.537 43.2442C10.4835 43.3244 10.3765 43.2977 10.2963 43.2442C9.86839 43.1105 9.52072 42.8698 9.17306 42.6291C7.70217 41.6128 6.57894 40.3024 5.61618 38.8315C3.63716 35.7828 2.35347 32.4666 1.87209 28.8562C1.33722 24.711 2.08604 20.7529 3.77088 16.9554C5.18828 13.7729 7.14055 10.9381 9.49398 8.39745C10.3498 7.48817 11.2056 6.57889 12.1416 5.74985C12.3288 5.58939 12.3288 5.48241 12.1416 5.29521C10.8312 3.77083 9.52072 2.24645 8.21029 0.722074C8.13006 0.641843 8.04983 0.561613 7.9696 0.427895H8.02309Z" fill="#FFA015"/>
<path d="M72.555 68.1156C72.555 68.3563 72.555 68.5168 72.555 68.6772C72.555 71.6992 72.555 74.748 72.555 77.77C72.555 78.0374 72.7689 78.2514 73.0364 78.2246C78.4118 78.0374 83.6803 77.3421 88.815 75.684C92.2649 74.5875 95.5811 73.1434 98.6031 71.1109C99.6996 70.3621 100.716 69.533 101.705 68.6237C105.958 64.6924 108.873 59.8786 110.691 54.4229C110.878 53.8613 111.012 53.2997 111.173 52.7381C111.173 52.6311 111.173 52.4974 111.306 52.4974C111.413 52.4707 111.52 52.5776 111.574 52.6579C111.788 52.9521 111.921 53.2997 112.055 53.6474C113.82 58.9961 112.376 64.7459 110.45 70.1481C109.889 71.726 109.301 73.2771 108.525 74.7747C103.791 83.7873 95.4207 89.0023 85.0442 91.7836C83.7873 92.1312 82.4768 92.3719 81.1931 92.5859C78.4653 92.987 75.7642 93.2812 73.0096 93.3614C72.7689 93.3614 72.5817 93.5754 72.5817 93.8161C72.5817 96.8381 72.5817 99.8601 72.5817 102.855C72.5817 103.016 72.5817 103.203 72.5817 103.363C72.3945 103.444 72.3143 103.283 72.2073 103.203C65.8156 97.9346 59.424 92.6928 53.0323 87.4244C52.4707 86.9697 51.9358 86.5151 51.3742 86.0605C51.1335 85.8733 51.08 85.7663 51.3742 85.5256C56.0008 81.728 60.6274 77.9037 65.254 74.1061C67.5807 72.1806 69.9074 70.2818 72.2341 68.3563C72.3143 68.2761 72.4213 68.2226 72.5817 68.0889L72.555 68.1156Z" fill="#8563FF"/>
<path d="M102.615 90.7406C102.668 90.8743 102.722 90.9546 102.748 91.0348C103.497 92.6661 104.219 94.2975 104.941 95.9556C104.995 96.0893 105.182 96.1695 105.316 96.0893C108.177 94.6719 110.852 93.0138 113.232 90.8743C114.837 89.4302 116.254 87.8523 117.404 86.0337C117.832 85.3652 118.179 84.6698 118.474 83.9478C119.811 80.792 120.212 77.4758 119.864 74.0794C119.838 73.7318 119.757 73.3841 119.704 73.0632C119.704 73.0097 119.65 72.9295 119.704 72.9027C119.757 72.8492 119.838 72.9027 119.891 72.9027C120.078 73.0097 120.239 73.1701 120.399 73.3306C122.646 75.791 123.261 79.2409 123.555 82.6373C123.635 83.6268 123.689 84.6163 123.635 85.6059C123.261 91.6231 120.025 96.4905 115.077 100.502C114.462 100.983 113.847 101.438 113.178 101.866C111.814 102.748 110.397 103.577 108.953 104.273C108.819 104.326 108.766 104.487 108.819 104.62C109.568 106.252 110.29 107.883 111.039 109.515C111.092 109.595 111.119 109.702 111.173 109.782C111.092 109.862 111.012 109.782 110.932 109.782C106.198 108.498 101.465 107.215 96.7312 105.904C96.33 105.797 95.9289 105.663 95.501 105.583C95.3138 105.53 95.2603 105.503 95.3673 105.316C96.9451 102.133 98.523 98.9509 100.074 95.7684C100.876 94.1638 101.652 92.5592 102.454 90.9545C102.481 90.9011 102.508 90.8476 102.588 90.7406H102.615Z" fill="#8563FF"/>
<path d="M21.475 82.4501C20.8866 82.5304 20.4052 82.6908 20.0576 82.985C19.7099 83.2792 19.5227 83.6803 19.5227 84.2152C19.5227 84.8035 19.6832 85.2314 20.0041 85.4989C20.325 85.7663 20.7262 85.9 21.2075 85.9C21.6354 85.9 22.0633 85.7663 22.4912 85.4989C22.9191 85.2314 23.2668 84.9105 23.561 84.5094C23.8551 84.1082 23.9889 83.7071 23.9889 83.2792V82.3164H23.347C22.6784 82.3164 22.0633 82.3431 21.475 82.4234V82.4501Z" fill="#8563FF"/>
<path d="M25.2458 59.8786H18.2658C8.1835 59.8786 0 68.0621 0 78.1444V85.1245C0 95.2068 8.1835 103.39 18.2658 103.39H25.2458C35.3281 103.39 43.5116 95.2068 43.5116 85.1245V78.1444C43.5116 68.0621 35.3281 59.8786 25.2458 59.8786ZM26.7702 86.8895C26.7702 87.1302 26.6365 87.3442 26.3958 87.5314C26.1551 87.7186 25.8342 87.7988 25.433 87.7988C25.0854 87.7988 24.7912 87.7186 24.5505 87.5314C24.3098 87.3442 24.1761 87.1302 24.1761 86.8895V85.9803C23.7215 86.5151 23.1866 86.9698 22.518 87.3977C21.8762 87.8256 21.1006 88.0128 20.2181 88.0128C19.2553 88.0128 18.453 87.7186 17.7577 87.157C17.0623 86.5954 16.7414 85.7128 16.7414 84.5629C16.7414 83.5733 17.0088 82.7978 17.517 82.2629C18.0518 81.728 18.7472 81.3536 19.6832 81.1397C20.5925 80.9257 21.6622 80.8188 22.8657 80.8188H24.0156V80.3374C24.0156 79.8827 23.9354 79.4548 23.7749 79.027C23.6145 78.5991 23.347 78.2514 22.9726 77.9572C22.5982 77.663 22.0901 77.5293 21.4483 77.5293C20.8064 77.5293 20.2983 77.5828 19.9506 77.7165C19.603 77.8502 19.3355 77.9572 19.1216 78.1177C18.9076 78.2514 18.7204 78.3316 18.56 78.3316C18.239 78.3316 17.9984 78.1712 17.8379 77.877C17.6507 77.5828 17.5705 77.2619 17.5705 76.941C17.5705 76.62 17.7844 76.3526 18.1856 76.0852C18.5867 75.8177 19.0948 75.6305 19.7099 75.4701C20.325 75.3364 20.9134 75.2561 21.5017 75.2561C22.7854 75.2561 23.8284 75.4968 24.5772 75.9782C25.3528 76.4596 25.8877 77.0747 26.2353 77.8502C26.583 78.6258 26.7702 79.4549 26.7702 80.3374V86.8895Z" fill="#8563FF"/>
<path d="M111.734 4.86731H104.754C94.6718 4.86731 86.4883 13.0508 86.4883 23.1331V30.1131C86.4883 40.1954 94.6718 48.3789 104.754 48.3789H111.734C121.816 48.3789 130 40.1954 130 30.1131V23.1331C130 13.0508 121.816 4.86731 111.734 4.86731ZM114.97 35.6758C114.783 35.863 114.569 35.9967 114.301 36.1037C114.034 36.2107 113.767 36.2641 113.499 36.2641C113.285 36.2641 113.071 36.2107 112.911 36.1304C112.75 36.0502 112.617 35.8897 112.563 35.6758L111.493 31.9584H105.022L103.979 35.6758C103.925 35.8897 103.818 36.0234 103.631 36.1304C103.444 36.2374 103.23 36.2641 103.016 36.2641C102.775 36.2641 102.508 36.2107 102.24 36.1037C101.973 35.9967 101.732 35.863 101.572 35.7025C101.411 35.5421 101.304 35.3281 101.304 35.1142C101.304 35.0607 101.304 34.9805 101.304 34.8735L106.492 17.9449C106.599 17.6239 106.813 17.3833 107.161 17.2495C107.509 17.0891 107.856 17.0088 108.257 17.0088C108.659 17.0088 109.033 17.0891 109.381 17.2495C109.728 17.41 109.942 17.6507 110.049 17.9449L115.211 34.8735C115.211 34.8735 115.264 35.0607 115.264 35.1142C115.264 35.3281 115.184 35.5153 114.997 35.7025L114.97 35.6758Z" fill="#FFA015"/>
<path d="M105.61 29.7387H110.852L108.231 20.7797L105.61 29.7387Z" fill="#FFA015"/>
</g>
<defs>
<clipPath id="clip0_57_10769">
<rect width="130" height="109.835" fill="white"/>
</clipPath>
</defs>
</svg>
