<svg width="130" height="130" viewBox="0 0 130 130" fill="none" xmlns="http://www.w3.org/2000/svg">
<path d="M37.416 124.118C37.416 124.118 37.353 123.929 37.353 123.824C36.8278 119.958 36.3026 116.092 35.7984 112.206C35.7143 111.639 35.6513 111.092 35.5673 110.525C35.5463 110.357 35.5673 110.315 35.7353 110.315C39.6639 110.441 43.5925 110.567 47.5211 110.693C47.9832 110.693 48.4664 110.714 48.9496 110.735C48.9496 110.84 48.8656 110.882 48.8236 110.945C47.8362 112.101 46.8488 113.235 45.8404 114.37C45.7143 114.517 45.6933 114.58 45.8404 114.727C47.7731 116.387 49.832 117.857 52.1429 118.929C53.8026 119.706 55.5042 120.273 57.311 120.525C57.9412 120.609 58.5505 120.63 59.1807 120.609C61.9328 120.546 64.4958 119.706 66.8908 118.298C67.1639 118.13 67.437 117.941 67.7311 117.752C67.7732 117.731 67.8152 117.647 67.8782 117.689C67.9412 117.731 67.9202 117.794 67.9202 117.857C67.8782 118.172 67.7311 118.466 67.5841 118.761C66.9958 119.958 66.1345 120.924 65.1681 121.786C63.1513 123.571 60.8824 124.874 58.3404 125.609C55.4202 126.45 52.521 126.303 49.6429 125.462C47.2479 124.748 45.0421 123.613 43.0253 122.122C42.29 121.597 41.5757 121.029 40.9034 120.441C40.7563 120.315 40.6933 120.336 40.5673 120.483C39.5799 121.618 38.6135 122.752 37.6261 123.887C37.5631 123.95 37.521 124.013 37.437 124.097L37.416 124.118Z" fill="#FFA015"/>
<path d="M52.2269 95.5042C52.2269 95.5042 52.353 95.3571 52.416 95.2941C53.4034 94.1597 54.3908 93.0042 55.3992 91.8697C55.4832 91.7647 55.4832 91.6176 55.3992 91.5336C53.4244 89.8319 51.3235 88.3403 48.9496 87.2689C47.3529 86.5336 45.7143 85.9874 43.9706 85.7563C43.3403 85.6723 42.6891 85.6513 42.0588 85.6723C39.2437 85.7563 36.6597 86.5966 34.2017 88.0672C33.9496 88.2143 33.7185 88.3823 33.4874 88.5504C33.4454 88.5714 33.4034 88.6344 33.3614 88.6134C33.3193 88.5924 33.3193 88.5084 33.3193 88.4664C33.3193 88.2773 33.4034 88.1092 33.4874 87.9412C34.6008 85.3361 36.9958 83.6555 39.4538 82.2479C40.1681 81.8277 40.8824 81.4496 41.6597 81.1344C46.3025 79.3067 50.9664 80.105 55.5672 82.479C56.1345 82.7731 56.6807 83.1092 57.2059 83.4664C58.2983 84.2017 59.3698 85 60.3782 85.8823C60.4622 85.9664 60.6093 85.9454 60.6723 85.8613C61.6597 84.7269 62.6471 83.5714 63.6345 82.437C63.6975 82.3739 63.7395 82.3109 63.8025 82.2479C63.8866 82.2899 63.8656 82.3739 63.8656 82.437C64.4118 86.5336 64.979 90.6513 65.5252 94.7479C65.5672 95.105 65.6093 95.4622 65.6723 95.7983C65.6933 95.9454 65.6723 96.0084 65.5042 96.0084C62.6051 95.9034 59.7269 95.8193 56.8277 95.7353C55.3782 95.6933 53.9076 95.6302 52.458 95.5882C52.395 95.5882 52.353 95.5882 52.2479 95.5882L52.2269 95.5042Z" fill="#8563FF"/>
<path d="M75.105 107.017C75.3361 107.185 75.5672 107.269 75.7773 107.29C75.9874 107.311 76.1975 107.206 76.3655 106.996C76.5546 106.765 76.6387 106.555 76.6177 106.345C76.5966 106.134 76.4916 105.945 76.3235 105.798C76.1765 105.651 75.9664 105.567 75.7353 105.525C75.5042 105.483 75.2521 105.483 75.021 105.525C74.7899 105.588 74.6008 105.693 74.4748 105.84L74.1597 106.197L74.3908 106.408C74.6219 106.618 74.8529 106.828 75.105 106.996V107.017Z" fill="#8563FF"/>
<path d="M66.3866 114.286L68.8656 116.597C72.4581 119.937 78.0463 119.559 81.3446 115.756L83.6345 113.109C86.9329 109.307 86.7018 103.508 83.1093 100.168L80.6303 97.8571C77.0379 94.5168 71.4497 94.8949 68.1513 98.6975L65.8614 101.345C62.5631 105.147 62.7942 110.945 66.3866 114.286ZM74.685 103.592C74.685 103.592 74.874 103.466 75.0211 103.466C75.1682 103.466 75.3152 103.55 75.4413 103.676C75.5673 103.781 75.6514 103.929 75.6724 104.076C75.6934 104.223 75.6724 104.349 75.5883 104.433L75.2942 104.769C75.6303 104.727 75.9665 104.727 76.3446 104.769C76.7018 104.832 77.0589 105 77.374 105.294C77.7102 105.609 77.9203 105.987 77.9623 106.429C78.0043 106.87 77.8572 107.311 77.4791 107.752C77.164 108.13 76.8068 108.319 76.4497 108.361C76.0925 108.382 75.7144 108.298 75.3152 108.067C74.9161 107.836 74.5169 107.542 74.0757 107.143L73.6766 106.765L73.5295 106.933C73.3824 107.101 73.2564 107.29 73.1934 107.521C73.1093 107.731 73.0883 107.962 73.1303 108.193C73.1724 108.424 73.2984 108.655 73.5295 108.866C73.7606 109.076 73.9497 109.223 74.1177 109.286C74.2858 109.349 74.4329 109.391 74.5379 109.412C74.664 109.412 74.748 109.475 74.811 109.517C74.9161 109.622 74.9581 109.769 74.9161 109.937C74.874 110.105 74.811 110.252 74.706 110.378C74.6009 110.504 74.4329 110.525 74.2018 110.504C73.9707 110.483 73.7186 110.378 73.4665 110.231C73.1934 110.084 72.9623 109.916 72.7522 109.727C72.29 109.307 71.9959 108.866 71.8908 108.424C71.7648 107.983 71.7858 107.563 71.8908 107.164C72.0169 106.765 72.227 106.387 72.5211 106.05L74.664 103.571L74.685 103.592Z" fill="#8563FF"/>
<path d="M17.5839 106.408L20.0629 108.718C23.6553 112.059 29.2436 111.681 32.5419 107.878L34.8318 105.231C38.1301 101.429 37.899 95.6302 34.3066 92.2899L31.8276 89.979C28.2352 86.6386 22.6469 87.0168 19.3486 90.8193L17.0587 93.4664C13.7604 97.2689 13.9915 103.067 17.5839 106.408ZM26.5125 93.7185C26.6385 93.7185 26.7646 93.7185 26.8906 93.7815C27.0167 93.8235 27.1427 93.9076 27.2268 93.9916C27.3108 94.0756 27.3528 94.1386 27.3948 94.2437C27.4369 94.3487 27.4158 94.4328 27.3948 94.5378L26.5545 96.3025L28.8654 98.4454L30.4621 97.3949C30.4621 97.3949 30.6301 97.3109 30.7352 97.3529C30.8402 97.3949 30.9242 97.437 30.9873 97.5C31.0713 97.584 31.1553 97.6891 31.2184 97.8151C31.2814 97.9412 31.3234 98.0672 31.3234 98.1933C31.3234 98.3193 31.3024 98.4244 31.2184 98.5084C31.2184 98.5084 31.1763 98.5504 31.1343 98.5924L23.7394 103.256C23.5923 103.34 23.4453 103.361 23.2772 103.298C23.1091 103.235 22.9411 103.151 22.815 103.025C22.689 102.899 22.5629 102.731 22.4999 102.563C22.4369 102.395 22.4369 102.227 22.4999 102.08L26.1974 93.9706C26.1974 93.9706 26.2394 93.8865 26.2604 93.8655C26.3234 93.7815 26.4284 93.7395 26.5545 93.7395L26.5125 93.7185Z" fill="#FFA015"/>
<path d="M27.8992 99.0546L26.0295 97.3109L24.0337 101.576L27.8992 99.0546Z" fill="#FFA015"/>
<path d="M27.584 11.5336C27.7101 11.5336 27.7941 11.5756 27.8781 11.6176C31.4916 13.1092 35.105 14.5798 38.7185 16.0714C39.2437 16.2815 39.7479 16.5126 40.2731 16.7017C40.4202 16.7647 40.4622 16.8067 40.3571 16.9538C38.2773 20.2941 36.1975 23.6345 34.1386 26.9748C33.8865 27.374 33.6344 27.7731 33.3823 28.1723C33.2983 28.1092 33.2983 28.0252 33.2773 27.9622C32.7731 26.5336 32.2899 25.105 31.8067 23.6765C31.7437 23.5084 31.6807 23.4454 31.4916 23.5084C29.0756 24.3487 26.7857 25.3992 24.7059 26.8698C23.2143 27.9202 21.8697 29.0966 20.7563 30.5462C20.3781 31.0504 20.042 31.5756 19.7479 32.1219C18.4244 34.5378 17.8781 37.1639 17.8991 39.958C17.8991 40.2941 17.9412 40.6092 17.9412 40.9454C17.9412 41.0084 17.9832 41.0714 17.9412 41.0924C17.8781 41.1345 17.8151 41.0924 17.7731 41.0294C17.521 40.8193 17.3319 40.5462 17.1638 40.2941C16.4286 39.1807 16.0084 37.9622 15.7563 36.6807C15.2101 34.0336 15.2101 31.4286 15.8613 28.8445C16.5966 25.8824 18.1723 23.4454 20.3361 21.3866C22.1638 19.6639 24.2437 18.3403 26.5336 17.3319C27.3529 16.9748 28.1933 16.6176 29.0546 16.3445C29.2227 16.2815 29.2437 16.2185 29.1807 16.0504C28.6765 14.6429 28.1933 13.2143 27.7101 11.8067C27.6891 11.7227 27.647 11.6387 27.626 11.5546L27.584 11.5336Z" fill="#FFA015"/>
<path d="M44.958 38.6765C45 38.8025 45.021 38.8655 45.042 38.9286C45.5462 40.3571 46.0294 41.7857 46.5126 43.2143C46.5546 43.3403 46.6807 43.4033 46.8067 43.3613C49.2647 42.5 51.6177 41.4286 53.7185 39.916C55.1471 38.9075 56.4496 37.7521 57.521 36.3655C57.9202 35.8613 58.2563 35.3151 58.5504 34.7479C59.895 32.2899 60.4412 29.6008 60.3992 26.7647C60.3992 26.4706 60.3572 26.1975 60.3572 25.9033C60.3572 25.8613 60.3361 25.7983 60.3572 25.7563C60.3992 25.7353 60.4622 25.7563 60.5042 25.7983C60.6513 25.9033 60.7773 26.0504 60.8824 26.1975C62.584 28.4664 62.8361 31.3865 62.8361 34.2227C62.8361 35.042 62.8361 35.8613 62.6891 36.6807C61.9538 41.6176 58.9286 45.2731 54.5588 48.0462C54.0336 48.3823 53.4664 48.6975 52.8992 48.9706C51.7017 49.5588 50.4832 50.084 49.2227 50.5042C49.1177 50.5462 49.0546 50.6723 49.0966 50.7773C49.6009 52.2059 50.084 53.6344 50.5672 55.042C50.5882 55.126 50.6303 55.2101 50.6513 55.2941C50.5672 55.3571 50.5042 55.2941 50.4622 55.2731C46.6387 53.6975 42.7941 52.1218 38.9706 50.5462C38.6345 50.4202 38.3193 50.2731 37.9832 50.147C37.8361 50.084 37.7941 50.042 37.8992 49.8949C39.4328 47.437 40.9454 44.979 42.479 42.521C43.2563 41.2815 44.0126 40.042 44.7899 38.8025C44.8109 38.7605 44.8529 38.7185 44.916 38.6344L44.958 38.6765Z" fill="#8563FF"/>
<path d="M23.5715 52.7521C23.2983 52.8782 23.1093 53.0252 23.0042 53.1933C22.8992 53.3613 22.8572 53.5924 22.9622 53.8655C23.0673 54.1387 23.2143 54.3277 23.4034 54.4118C23.5925 54.4958 23.8025 54.4958 24.0336 54.4118C24.2437 54.3487 24.4118 54.2227 24.5799 54.0336C24.7269 53.8445 24.853 53.6345 24.916 53.4034C24.979 53.1723 24.979 52.9622 24.916 52.7521L24.7479 52.2899L24.4538 52.374C24.1387 52.458 23.8656 52.584 23.5925 52.6891L23.5715 52.7521Z" fill="#8563FF"/>
<path d="M21.6388 41.5546L18.3825 42.542C13.6976 43.9706 11.2396 49.0126 12.8783 53.7605L14.0127 57.0588C15.6514 61.8277 20.7985 64.5168 25.4833 63.0672L28.7396 62.0798C33.4245 60.6513 35.8825 55.6092 34.2438 50.8613L33.1094 47.563C31.4707 42.7941 26.3237 40.105 21.6388 41.5546ZM26.7438 54.0966C26.7859 54.2017 26.7438 54.3277 26.6808 54.4538C26.5968 54.5798 26.4707 54.6639 26.2817 54.7269C26.1136 54.7689 25.9665 54.7689 25.8195 54.7269C25.6724 54.6849 25.5884 54.6008 25.5464 54.4748L25.3993 54.0336C25.2732 54.3487 25.1052 54.6429 24.8741 54.937C24.643 55.2311 24.3279 55.4412 23.9077 55.5672C23.4665 55.7143 23.0253 55.6933 22.6262 55.5252C22.227 55.3571 21.9119 55 21.7228 54.4328C21.5548 53.9706 21.5548 53.5714 21.7228 53.2353C21.8699 52.8992 22.143 52.6261 22.5422 52.395C22.9413 52.1639 23.4035 51.9748 23.9707 51.7857L24.4959 51.6177L24.4119 51.3866C24.3279 51.1765 24.2228 50.9664 24.0758 50.7983C23.9287 50.6303 23.7396 50.4832 23.5295 50.3992C23.2985 50.3151 23.0464 50.3151 22.7522 50.3992C22.4581 50.4832 22.227 50.5882 22.08 50.6933C21.9329 50.7983 21.8279 50.9034 21.7648 50.9874C21.6808 51.0924 21.6178 51.1345 21.5338 51.1765C21.3867 51.2185 21.2396 51.1765 21.1136 51.0714C20.9875 50.9454 20.8825 50.8193 20.8405 50.6723C20.7985 50.5252 20.8405 50.3571 20.9875 50.1891C21.1346 50.021 21.3447 49.8529 21.5968 49.6849C21.8489 49.5378 22.122 49.4118 22.3951 49.3277C23.0043 49.1387 23.5085 49.1177 23.9497 49.2227C24.3909 49.3487 24.748 49.5588 25.0211 49.874C25.3153 50.1891 25.5253 50.5462 25.6724 50.9664L26.7438 54.0546V54.0966Z" fill="#8563FF"/>
<path d="M52.8361 3.23529L49.5798 4.22269C44.8949 5.65126 42.4369 10.6933 44.0756 15.4412L45.21 18.7395C46.8487 23.5084 51.9957 26.1975 56.6806 24.7479L59.9369 23.7605C64.6218 22.3319 67.0798 17.2899 65.4411 12.542L64.3066 9.2437C62.668 4.47479 57.5209 1.78571 52.8361 3.23529ZM59.3697 17.3319C59.3066 17.437 59.2226 17.542 59.1176 17.626C59.0125 17.7101 58.8865 17.7731 58.7814 17.8151C58.6764 17.8571 58.5714 17.8571 58.4873 17.8361C58.4033 17.8151 58.3193 17.7731 58.2562 17.6681L57.1428 16.0714L54.1386 16.9958L54.2646 18.9076C54.2646 19.0126 54.2646 19.0966 54.1806 19.1597C54.0966 19.2227 54.0125 19.2857 53.9075 19.3067C53.8024 19.3487 53.6554 19.3487 53.5083 19.3487C53.3613 19.3487 53.2352 19.3067 53.1302 19.2647C53.0251 19.2227 52.9411 19.1387 52.9201 19.0336C52.9201 19.0126 52.9201 18.9706 52.8991 18.9286L52.5419 10.1891C52.5419 10.021 52.605 9.87395 52.731 9.76891C52.8571 9.64286 53.0251 9.55882 53.1932 9.4958C53.3613 9.43277 53.5714 9.43277 53.7394 9.45378C53.9285 9.47479 54.0545 9.55882 54.1596 9.68487L59.3277 16.9328C59.3277 16.9328 59.3907 17.0168 59.3907 17.0378C59.4327 17.1429 59.4117 17.2479 59.3487 17.3529L59.3697 17.3319Z" fill="#FFA015"/>
<path d="M54.0543 15.8403L56.4913 15.105L53.8022 11.2395L54.0543 15.8403Z" fill="#FFA015"/>
<path d="M130 59.3277C129.958 59.4328 129.853 59.4748 129.79 59.5378C126.702 61.9328 123.613 64.3067 120.504 66.7017C120.063 67.0378 119.601 67.3739 119.181 67.7311C119.055 67.8361 119.013 67.8361 118.929 67.6891C117.08 64.2227 115.231 60.7563 113.361 57.2899C113.13 56.8697 112.92 56.4496 112.689 56.0294C112.794 55.9874 112.857 56.0294 112.941 56.0294C114.433 56.3235 115.924 56.5966 117.395 56.8907C117.584 56.9328 117.647 56.8907 117.689 56.7017C118.172 54.2017 118.403 51.6807 118.172 49.1386C118.004 47.3319 117.668 45.5672 116.954 43.8655C116.723 43.2773 116.429 42.7311 116.092 42.2059C114.643 39.8529 112.647 38.0462 110.231 36.6807C109.937 36.5126 109.643 36.3865 109.349 36.2395C109.307 36.2185 109.223 36.1975 109.223 36.1554C109.223 36.0924 109.286 36.0504 109.349 36.0294C109.664 35.9034 109.979 35.9034 110.294 35.8823C111.618 35.7983 112.899 36.0504 114.139 36.4706C116.702 37.3319 118.971 38.6344 120.861 40.4832C123.046 42.605 124.37 45.1891 125.063 48.0882C125.651 50.5252 125.756 53.0042 125.483 55.4832C125.378 56.3865 125.273 57.2689 125.084 58.1723C125.042 58.3613 125.084 58.4033 125.273 58.4454C126.744 58.7185 128.214 59.0126 129.685 59.2857C129.769 59.2857 129.853 59.3277 129.958 59.3277H130Z" fill="#FFA015"/>
<path d="M97.8153 60.7983C97.6892 60.7773 97.6262 60.7563 97.5422 60.7563C96.0506 60.4622 94.559 60.1891 93.0884 59.895C92.9624 59.8739 92.8363 59.958 92.8153 60.084C92.3321 62.6471 92.08 65.2101 92.3321 67.7941C92.5002 69.5378 92.8363 71.2395 93.5086 72.8571C93.7607 73.4454 94.0548 74.0126 94.3909 74.5588C95.8615 76.9538 97.8993 78.7815 100.378 80.1681C100.63 80.3151 100.883 80.4202 101.156 80.5462C101.198 80.5672 101.261 80.5882 101.261 80.6302C101.261 80.6933 101.198 80.7143 101.156 80.7563C100.988 80.8403 100.798 80.8613 100.609 80.8823C97.7943 81.2185 95.1262 79.979 92.6892 78.5504C91.975 78.1302 91.2817 77.7101 90.6304 77.2059C86.7229 74.1176 85.0842 69.6639 84.8531 64.4748C84.8321 63.8445 84.8531 63.2143 84.8951 62.563C85.0002 61.2395 85.1472 59.916 85.3993 58.6134C85.4203 58.4874 85.3363 58.3823 85.2313 58.3613C83.7397 58.0882 82.2691 57.7941 80.7985 57.5C80.7145 57.5 80.6304 57.458 80.5464 57.458C80.5464 57.3529 80.6304 57.3319 80.6724 57.3109C83.9498 54.7899 87.2271 52.2479 90.5044 49.7269C90.7775 49.5168 91.0716 49.3067 91.3447 49.0756C91.4708 48.9706 91.5128 48.9706 91.5968 49.1176C92.9623 51.6807 94.3279 54.2227 95.6934 56.7647C96.3867 58.0462 97.059 59.3277 97.7523 60.6092C97.7733 60.6513 97.7943 60.7143 97.8363 60.7983H97.8153Z" fill="#8563FF"/>
<path d="M96.3236 35.2521C96.3446 34.958 96.3236 34.7269 96.2186 34.5378C96.1135 34.3487 95.9455 34.2227 95.6724 34.1597C95.3783 34.0966 95.1472 34.1597 94.9791 34.2647C94.811 34.3697 94.706 34.5798 94.643 34.8109C94.6009 35.021 94.6219 35.2311 94.685 35.4622C94.769 35.6933 94.8951 35.8824 95.0631 36.0714C95.2312 36.2395 95.4203 36.3445 95.6093 36.3866L96.0925 36.4706L96.1556 36.1555C96.2186 35.8403 96.2816 35.5462 96.3026 35.2521H96.3236Z" fill="#8563FF"/>
<path d="M106.996 39.1597L107.752 35.8403C108.845 31.0714 105.736 26.4076 100.778 25.4622L97.3533 24.8109C92.4163 23.8655 87.5003 26.9538 86.4079 31.7227L85.6516 35.042C84.5592 39.8109 87.6684 44.4748 92.6264 45.4202L96.0508 46.0714C100.988 47.0168 105.904 43.9286 106.996 39.1597ZM93.5928 37.3109C93.4667 37.2899 93.3827 37.2059 93.3197 37.0798C93.2566 36.9328 93.2566 36.7857 93.2987 36.5966C93.3407 36.4286 93.4037 36.3025 93.5298 36.1975C93.6558 36.0924 93.7608 36.0714 93.8869 36.0924L94.3281 36.1765C94.118 35.9034 93.9499 35.6092 93.8239 35.2731C93.6978 34.937 93.6768 34.5378 93.7608 34.1176C93.8659 33.6555 94.097 33.2983 94.4541 33.0252C94.8113 32.7521 95.2735 32.6681 95.8407 32.7941C96.3239 32.8781 96.681 33.0882 96.8911 33.3823C97.1012 33.6765 97.2062 34.0546 97.2062 34.5168C97.2062 34.979 97.1432 35.4832 97.0172 36.0504L96.8911 36.5966L97.1222 36.6387C97.3533 36.6807 97.5634 36.6807 97.7945 36.6387C98.0256 36.5966 98.2356 36.5126 98.4037 36.3655C98.5928 36.2185 98.7188 35.9874 98.7819 35.6723C98.8449 35.3571 98.8659 35.126 98.8449 34.958C98.8239 34.7899 98.7819 34.6429 98.7398 34.5168C98.6978 34.4118 98.6768 34.3067 98.6978 34.2227C98.7398 34.0756 98.8239 33.9706 98.9919 33.9286C99.16 33.8655 99.3281 33.8655 99.4751 33.8865C99.6222 33.9076 99.7482 34.0336 99.8323 34.2647C99.9163 34.4958 99.9583 34.7479 99.9583 35.042C99.9583 35.3361 99.9373 35.6302 99.8743 35.9244C99.7272 36.5336 99.4961 36.9958 99.181 37.3109C98.8659 37.626 98.4877 37.8361 98.0886 37.9202C97.6684 38.0042 97.2482 38.0252 96.8071 37.9202L93.5928 37.2899V37.3109Z" fill="#8563FF"/>
<path d="M124.58 85.3571L125.336 82.0378C126.429 77.2689 123.32 72.605 118.362 71.6597L114.937 71.0084C110 70.063 105.084 73.1513 103.992 77.9202L103.236 81.2395C102.143 86.0084 105.252 90.6723 110.21 91.6176L113.635 92.2689C118.572 93.2143 123.488 90.1261 124.58 85.3571ZM109.118 83.9706C109.118 83.9706 109.013 83.7395 108.992 83.6134C108.971 83.4664 108.992 83.3403 108.992 83.2143C109.013 83.1092 109.055 83.0252 109.118 82.9412C109.181 82.8571 109.265 82.8361 109.37 82.8151L111.303 82.6681L112.017 79.6008L110.315 78.7605C110.315 78.7605 110.168 78.6555 110.126 78.5504C110.084 78.4454 110.105 78.3613 110.126 78.2563C110.147 78.1303 110.21 78.0252 110.294 77.8992C110.378 77.7731 110.462 77.6891 110.568 77.605C110.673 77.521 110.778 77.521 110.883 77.542C110.904 77.542 110.946 77.542 110.988 77.584L118.74 81.6597C118.887 81.7437 118.971 81.8697 119.013 82.0378C119.055 82.2059 119.055 82.395 119.013 82.584C118.971 82.7731 118.887 82.9412 118.782 83.0882C118.677 83.2353 118.53 83.3193 118.362 83.3403L109.496 84.1807C109.496 84.1807 109.391 84.1807 109.37 84.1807C109.265 84.1807 109.181 84.0966 109.118 83.9916V83.9706Z" fill="#FFA015"/>
<path d="M113.047 80.105L112.479 82.584L117.143 82.1849L113.047 80.105Z" fill="#FFA015"/>
</svg>
