<svg width="130" height="130" viewBox="0 0 130 130" fill="none" xmlns="http://www.w3.org/2000/svg">
<g clip-path="url(#clip0_62_119502)">
<path d="M43.5708 114.256C43.5199 114.172 43.52 114.087 43.52 114.019C43.2149 110.85 42.9099 107.664 42.6048 104.495C42.554 104.037 42.5201 103.58 42.4692 103.122C42.4692 102.987 42.4692 102.953 42.6218 102.97C45.9264 103.292 49.248 103.614 52.5527 103.936C52.9425 103.969 53.3492 104.02 53.7559 104.054C53.7559 104.139 53.6881 104.173 53.6373 104.207C52.756 105.088 51.8917 105.952 51.0105 106.834C50.9088 106.935 50.8749 107.003 51.0105 107.122C52.5866 108.579 54.2643 109.884 56.1793 110.884C57.552 111.596 58.9586 112.172 60.4838 112.46C61.0092 112.562 61.5345 112.612 62.0599 112.629C64.3816 112.731 66.5678 112.189 68.6523 111.172C68.8895 111.053 69.1268 110.918 69.364 110.782C69.3979 110.765 69.4488 110.714 69.4827 110.731C69.5335 110.765 69.5166 110.833 69.5166 110.884C69.4657 111.138 69.3301 111.375 69.1946 111.596C68.6523 112.528 67.9066 113.273 67.0423 113.934C65.2798 115.273 63.314 116.222 61.1448 116.663C58.6536 117.188 56.2132 116.9 53.8237 116.053C51.824 115.341 50.0106 114.29 48.3498 112.968C47.7567 112.494 47.1635 112.002 46.6212 111.477C46.5026 111.375 46.4518 111.375 46.3501 111.477C45.4858 112.341 44.6215 113.223 43.7572 114.087C43.7064 114.138 43.6555 114.188 43.6047 114.239L43.5708 114.256Z" fill="#FFA015"/>
<path d="M56.1282 130C56.1282 130 56.0265 129.932 55.9926 129.898C54.4504 128.424 52.9082 126.933 51.3661 125.458C51.1458 125.238 50.9254 125.035 50.7051 124.814C50.6373 124.746 50.6373 124.73 50.7051 124.679C52.5354 123.408 54.3487 122.12 56.179 120.832C56.3993 120.679 56.6196 120.527 56.8399 120.374C56.8738 120.425 56.8399 120.459 56.8399 120.51C56.7721 121.34 56.7213 122.171 56.6535 123.001C56.6535 123.103 56.6535 123.136 56.7721 123.153C58.2126 123.204 59.6362 123.153 61.0428 122.815C62.0426 122.577 63.0256 122.255 63.9238 121.73C64.2288 121.56 64.5169 121.357 64.805 121.137C66.0252 120.171 66.9064 118.951 67.5165 117.527C67.5843 117.358 67.6521 117.188 67.7029 117.019C67.7029 116.985 67.7029 116.951 67.7538 116.951C67.7877 116.951 67.8215 116.985 67.8385 117.019C67.9232 117.171 67.9571 117.341 67.991 117.527C68.1266 118.239 68.0758 118.951 67.9232 119.645C67.6182 121.103 67.025 122.425 66.1099 123.611C65.0592 124.967 63.7034 125.882 62.1104 126.492C60.7886 127 59.3989 127.255 57.9754 127.305C57.467 127.322 56.9586 127.322 56.4502 127.305C56.3485 127.305 56.3146 127.339 56.3146 127.424C56.2637 128.238 56.1959 129.068 56.1282 129.881C56.1282 129.932 56.1282 129.966 56.1282 130.034V130Z" fill="#FFA015"/>
<path d="M57.0434 91.8016C57.0434 91.8016 57.1621 91.683 57.196 91.6491C58.0772 90.7678 58.9415 89.9035 59.8227 89.0223C59.9075 88.9545 59.8905 88.8189 59.8227 88.7511C58.2128 87.2598 56.4842 85.921 54.5353 84.9211C53.2134 84.2432 51.8407 83.7009 50.3833 83.4128C49.8579 83.3112 49.3156 83.2603 48.7733 83.2264C46.4008 83.1247 44.1807 83.684 42.0793 84.7347C41.859 84.8364 41.6556 84.972 41.4523 85.0906C41.4184 85.1075 41.3845 85.1414 41.3506 85.1245C41.2997 85.0906 41.3167 85.0397 41.3167 84.9889C41.3336 84.8364 41.4014 84.7008 41.4692 84.5652C42.503 82.5147 44.5874 81.2775 46.7058 80.2607C47.3159 79.9726 47.9429 79.6845 48.6039 79.4812C52.5864 78.244 56.5011 79.1592 60.2973 81.3453C60.7548 81.6165 61.2124 81.9046 61.6361 82.2266C62.5343 82.8875 63.4155 83.5993 64.2289 84.3619C64.2967 84.4297 64.4154 84.4297 64.4831 84.3619C65.3474 83.4806 66.2287 82.6163 67.093 81.752C67.1438 81.7012 67.1947 81.6504 67.2455 81.5995C67.3302 81.6334 67.2963 81.7012 67.2963 81.752C67.6183 85.1245 67.9573 88.48 68.2793 91.8524C68.3132 92.1405 68.3301 92.4286 68.364 92.7167C68.364 92.8523 68.364 92.8862 68.2115 92.8692C65.7711 92.632 63.3477 92.3947 60.9073 92.1575C59.6872 92.0388 58.45 91.9202 57.2299 91.8016C57.179 91.8016 57.1451 91.8016 57.0604 91.7677L57.0434 91.8016Z" fill="#8563FF"/>
<path d="M54.8912 76.5663C54.8912 76.5663 54.9251 76.4815 54.942 76.4477C55.1962 75.7528 55.4674 75.075 55.7216 74.3971C55.7385 74.3293 55.7216 74.2784 55.6538 74.2446C54.4167 73.8209 53.1626 73.5328 51.8577 73.465C50.9764 73.4141 50.1121 73.465 49.2478 73.6684C48.9428 73.7361 48.6377 73.8378 48.3327 73.9565C47.0278 74.4818 45.9601 75.3122 45.0789 76.3968C44.9942 76.4985 44.9094 76.6171 44.8247 76.7357C44.8247 76.7527 44.8077 76.7866 44.7738 76.7866C44.74 76.7866 44.7399 76.7527 44.723 76.7188C44.7061 76.6341 44.7061 76.5493 44.7061 76.4477C44.7738 75.0919 45.5873 73.9056 46.4855 72.838C46.7397 72.5329 47.0108 72.2279 47.3159 71.9567C49.1631 70.3129 51.5018 69.8553 54.0947 70.1264C54.4167 70.1603 54.7217 70.2112 55.0437 70.279C55.6877 70.4145 56.3317 70.584 56.9587 70.8043C57.0095 70.8213 57.0773 70.8043 57.0943 70.7365C57.3485 70.0587 57.6027 69.3638 57.8738 68.6859C57.8738 68.6521 57.9077 68.6012 57.9247 68.5673C57.9755 68.5673 57.9755 68.6182 57.9925 68.6351C58.9923 70.3806 59.9922 72.1092 60.9751 73.8548C61.0599 74.0073 61.1446 74.1598 61.2293 74.2954C61.2632 74.3632 61.2632 74.3801 61.1954 74.414C59.8227 74.8716 58.45 75.3461 57.0773 75.8037C56.3825 76.0409 55.6877 76.2782 54.9929 76.4985C54.9759 76.4985 54.942 76.4985 54.8912 76.5324V76.5663Z" fill="#8563FF"/>
<path d="M75.9394 102.41C76.1258 102.563 76.3291 102.648 76.4986 102.665C76.6681 102.682 76.8545 102.614 77.007 102.461C77.1765 102.292 77.2612 102.122 77.2443 101.953C77.2273 101.783 77.1426 101.631 77.007 101.478C76.8884 101.36 76.7189 101.258 76.5156 101.224C76.3122 101.173 76.1258 101.173 75.9224 101.207C75.7191 101.241 75.5665 101.309 75.4479 101.444L75.1768 101.716L75.3632 101.902C75.5496 102.088 75.753 102.258 75.9394 102.41Z" fill="#8563FF"/>
<path d="M68.3302 107.85L70.3469 109.867C73.2618 112.782 77.99 112.782 80.9048 109.867L82.9215 107.85C85.8364 104.935 85.8364 100.207 82.9215 97.2924L80.9048 95.2757C77.99 92.3608 73.2618 92.3608 70.3469 95.2757L68.3302 97.2924C65.4153 100.207 65.4153 104.935 68.3302 107.85ZM75.7021 99.6141C75.7021 99.6141 75.8716 99.5124 75.9902 99.5463C76.1088 99.5633 76.2275 99.6311 76.3461 99.7497C76.4478 99.8514 76.4986 99.97 76.5156 100.089C76.5325 100.207 76.5156 100.309 76.4308 100.377L76.1597 100.648C76.4478 100.631 76.7359 100.648 77.0409 100.716C77.346 100.783 77.6341 100.936 77.8883 101.207C78.1594 101.478 78.3119 101.8 78.3458 102.156C78.3797 102.512 78.2272 102.868 77.8883 103.207C77.6002 103.495 77.3121 103.647 76.9901 103.647C76.685 103.647 76.363 103.546 76.0411 103.342C75.7191 103.139 75.3801 102.868 75.0242 102.512L74.6853 102.173L74.5497 102.309C74.4142 102.444 74.3125 102.597 74.2447 102.766C74.1769 102.936 74.143 103.122 74.1769 103.309C74.1938 103.495 74.3125 103.681 74.4989 103.868C74.6853 104.054 74.8548 104.173 74.9903 104.241C75.1259 104.308 75.2446 104.342 75.3462 104.376C75.4479 104.393 75.5157 104.427 75.5665 104.478C75.6513 104.563 75.6852 104.681 75.6513 104.817C75.6174 104.952 75.5496 105.071 75.4649 105.156C75.3801 105.24 75.2276 105.274 75.0412 105.224C74.8548 105.173 74.6514 105.088 74.4311 104.952C74.2108 104.817 74.0244 104.664 73.838 104.495C73.4651 104.122 73.2448 103.749 73.1601 103.393C73.0753 103.037 73.0923 102.698 73.2109 102.376C73.3295 102.054 73.516 101.766 73.7702 101.512L75.6682 99.6141H75.7021Z" fill="#8563FF"/>
<path d="M27.4371 98.7498L29.4538 100.767C32.3687 103.681 37.0969 103.681 40.0118 100.767L42.0284 98.7498C44.9433 95.835 44.9433 91.1068 42.0284 88.1919L40.0118 86.1752C37.0969 83.2603 32.3687 83.2603 29.4538 86.1752L27.4371 88.1919C24.5223 91.1068 24.5223 95.835 27.4371 98.7498ZM35.4022 88.9206C35.5039 88.9206 35.6056 88.9545 35.7242 88.9884C35.8259 89.0392 35.9275 89.0901 35.9953 89.1748C36.0631 89.2426 36.097 89.3104 36.1309 89.3782C36.1648 89.446 36.1309 89.5307 36.097 89.6154L35.3344 91.0051L37.2155 92.8862L38.5882 92.1236C38.5882 92.1236 38.7407 92.0727 38.8255 92.0897C38.9102 92.1066 38.978 92.1575 39.0458 92.2253C39.1136 92.293 39.1814 92.3947 39.2322 92.4964C39.283 92.5981 39.3169 92.7167 39.3169 92.8015C39.3169 92.8862 39.283 92.9879 39.2153 93.0557C39.2153 93.0557 39.1814 93.0896 39.1475 93.1235L32.7585 96.5128C32.6398 96.5806 32.5043 96.5806 32.3687 96.5128C32.2331 96.462 32.0975 96.3773 31.9959 96.2586C31.8942 96.14 31.7925 96.0214 31.7417 95.8689C31.6908 95.7333 31.6908 95.5977 31.7417 95.4791L35.148 89.0901C35.148 89.0901 35.1819 89.0223 35.1988 89.0053C35.2666 88.9376 35.3344 88.9206 35.453 88.9206H35.4022Z" fill="#FFA015"/>
<path d="M36.4019 93.3268L34.8767 91.8185L33.0464 95.1571L36.4019 93.3268Z" fill="#FFA015"/>
<path d="M33.0802 21.8107C33.1819 21.8107 33.2496 21.8616 33.3174 21.8785C36.2154 23.2004 39.1302 24.5222 42.0282 25.8441C42.4518 26.0305 42.8586 26.2339 43.2822 26.4203C43.4009 26.4711 43.4347 26.505 43.35 26.6236C41.4181 29.3352 39.4861 32.0297 37.5542 34.7412C37.3169 35.0632 37.0966 35.3852 36.8593 35.7241C36.7915 35.6733 36.7915 35.6055 36.7746 35.5377C36.4526 34.3345 36.1306 33.1482 35.8086 31.945C35.7747 31.7925 35.7239 31.7416 35.5714 31.7925C33.5208 32.4195 31.5549 33.233 29.7247 34.3853C28.4198 35.2157 27.2165 36.1648 26.1997 37.3341C25.8438 37.7408 25.5388 38.1645 25.2676 38.6051C24.0305 40.571 23.3865 42.7402 23.234 45.045C23.217 45.3161 23.234 45.5873 23.217 45.8584C23.217 45.9093 23.234 45.9601 23.2001 45.994C23.1493 46.0109 23.0984 45.994 23.0645 45.9432C22.8612 45.7737 22.7425 45.5364 22.607 45.3161C22.0647 44.384 21.7935 43.3503 21.6579 42.2826C21.3698 40.0795 21.5393 37.9103 22.2341 35.8089C23.0306 33.3855 24.4881 31.4027 26.42 29.7758C28.03 28.4031 29.8602 27.3524 31.8261 26.5897C32.5379 26.3186 33.2496 26.0474 33.9784 25.8271C34.1309 25.7763 34.1478 25.7255 34.1139 25.5729C33.7919 24.3866 33.4699 23.2004 33.1649 22.0141C33.148 21.9463 33.131 21.8785 33.1141 21.7938L33.0802 21.8107Z" fill="#FFA015"/>
<path d="M13.1506 24.8103C13.1506 24.8103 13.2523 24.7595 13.3031 24.7426C15.3537 24.1494 17.4212 23.5563 19.4718 22.9631C19.7599 22.8784 20.0649 22.7937 20.353 22.7089C20.4378 22.675 20.4717 22.692 20.4717 22.7937C20.6581 25.0137 20.8614 27.2338 21.0648 29.4538C21.0818 29.725 21.1156 29.9792 21.1326 30.2503C21.0818 30.2503 21.0479 30.2164 21.014 30.1995C20.3361 29.725 19.6413 29.2674 18.9634 28.7929C18.8787 28.742 18.8278 28.7251 18.777 28.8268C18.0144 30.0469 17.3534 31.318 16.9298 32.6907C16.6247 33.6736 16.4213 34.6904 16.4213 35.7242C16.4213 36.0801 16.4552 36.4359 16.5061 36.7918C16.7264 38.334 17.3534 39.7067 18.2855 40.9608C18.3872 41.1133 18.5228 41.2489 18.6414 41.3845C18.6583 41.4014 18.6922 41.4353 18.6922 41.4522C18.6922 41.4861 18.6414 41.4861 18.6075 41.4861C18.4211 41.4861 18.2686 41.4183 18.0991 41.3675C17.4212 41.1302 16.8281 40.7235 16.3027 40.249C15.2012 39.2491 14.3369 38.0798 13.7776 36.7071C13.1167 35.131 13.015 33.4872 13.2692 31.8094C13.4895 30.4028 13.964 29.081 14.625 27.8269C14.8622 27.3693 15.1164 26.9287 15.3876 26.505C15.4384 26.4203 15.4215 26.3864 15.3537 26.3186C14.6758 25.861 13.9979 25.3865 13.3201 24.929C13.2862 24.8951 13.2353 24.8781 13.2014 24.8442L13.1506 24.8103Z" fill="#FFA015"/>
<path d="M45.7905 44.7061C45.8243 44.8077 45.8413 44.8586 45.8413 44.9264C46.1633 46.1296 46.4853 47.3159 46.7903 48.5191C46.8242 48.6208 46.9259 48.6886 47.0276 48.6547C49.129 48.0107 51.1457 47.1803 52.9929 45.994C54.247 45.1975 55.3994 44.2824 56.3653 43.1469C56.7212 42.7402 57.0432 42.2996 57.3313 41.842C58.6023 39.8423 59.2294 37.6392 59.3819 35.2836C59.3819 35.0463 59.3819 34.809 59.3819 34.5718C59.3819 34.5379 59.3819 34.487 59.3988 34.4532C59.4497 34.4362 59.4836 34.4532 59.5175 34.487C59.6361 34.5887 59.7208 34.7074 59.8056 34.826C61.0596 36.7579 61.0935 39.1644 60.9241 41.5031C60.8732 42.181 60.8054 42.8588 60.6529 43.5367C59.7378 47.604 56.9924 50.5358 53.1793 52.722C52.7218 52.9931 52.2303 53.2304 51.7388 53.4337C50.7051 53.8744 49.6713 54.2811 48.5867 54.6031C48.485 54.637 48.4342 54.7386 48.4681 54.8234C48.7901 56.0097 49.1121 57.1959 49.434 58.3992C49.451 58.467 49.4679 58.5348 49.4849 58.6026C49.4171 58.6534 49.3663 58.6025 49.3154 58.5687C46.2311 57.1621 43.1637 55.7724 40.0793 54.3658C39.8082 54.2472 39.554 54.1116 39.2828 54.0099C39.1642 53.9591 39.1303 53.9252 39.215 53.8066C40.6386 51.8238 42.0621 49.824 43.4857 47.8243C44.1974 46.8244 44.9262 45.8246 45.6379 44.8077C45.6718 44.7738 45.6888 44.7399 45.7396 44.6722L45.7905 44.7061Z" fill="#8563FF"/>
<path d="M60.0428 50.468C60.0428 50.468 60.1105 50.5358 60.1275 50.5697C60.5851 51.1459 61.0596 51.7051 61.5171 52.2813C61.551 52.3322 61.6358 52.3322 61.6697 52.2813C62.6526 51.417 63.5338 50.485 64.2456 49.3834C64.7201 48.6377 65.1268 47.8751 65.381 47.0278C65.4827 46.7227 65.5336 46.4007 65.5844 46.0957C65.7878 44.7061 65.5844 43.3672 65.0929 42.0454C65.0421 41.9098 64.9743 41.7912 64.9235 41.6556C64.9235 41.6387 64.8896 41.6048 64.9235 41.5878C64.9404 41.5709 64.9743 41.5709 65.0082 41.5878C65.0929 41.6048 65.1777 41.6556 65.2455 41.7064C66.3979 42.4352 67.0079 43.7401 67.4825 45.045C67.618 45.4178 67.7536 45.8076 67.8214 46.2143C68.3129 48.6377 67.5502 50.8917 66.025 53.0101C65.8386 53.2643 65.6352 53.5185 65.4149 53.7557C64.9743 54.2472 64.4998 54.7217 63.9914 55.1623C63.9405 55.1962 63.9405 55.264 63.9914 55.3148C64.449 55.8741 64.9235 56.4503 65.381 57.0095C65.4149 57.0434 65.4319 57.0773 65.4658 57.1112C65.4488 57.1621 65.398 57.1282 65.3641 57.1282C63.3644 57.1282 61.3477 57.1282 59.3479 57.1112C59.1785 57.1112 59.009 57.1112 58.8226 57.1112C58.7378 57.1112 58.7209 57.1112 58.7378 57.0095C59.0259 55.586 59.314 54.1624 59.5852 52.7389C59.7208 52.0271 59.8733 51.2984 60.0089 50.5866C60.0089 50.5527 60.0089 50.5358 60.0428 50.485V50.468Z" fill="#8563FF"/>
<path d="M27.1319 55.7724C26.9116 55.8741 26.7421 55.9927 26.6235 56.1283C26.5048 56.2639 26.4879 56.4503 26.5387 56.6706C26.6065 56.9078 26.7082 57.0604 26.8607 57.1281C27.0133 57.1959 27.1827 57.2129 27.3861 57.162C27.5556 57.1112 27.7081 57.0265 27.8606 56.8739C27.9962 56.7214 28.1148 56.5519 28.1826 56.3655C28.2504 56.1791 28.2673 55.9927 28.2165 55.8402L28.1148 55.4673L27.8606 55.5351C27.6064 55.6029 27.3522 55.6877 27.1319 55.7724Z" fill="#8563FF"/>
<path d="M26.2337 46.4685L23.4714 47.2142C19.4888 48.2818 17.1332 52.3661 18.2009 56.3486L18.9465 59.1109C20.0142 63.0935 24.0984 65.4491 28.0809 64.3814L30.8433 63.6358C34.8258 62.5681 37.1814 58.4839 36.1138 54.5014L35.3681 51.739C34.3005 47.7565 30.2162 45.4009 26.2337 46.4685ZM29.6909 56.9756C29.7248 57.0773 29.6909 57.162 29.6061 57.2637C29.5214 57.3654 29.4028 57.4332 29.2503 57.4671C29.1147 57.501 28.9791 57.501 28.8774 57.4671C28.7588 57.4162 28.691 57.3485 28.6571 57.2468L28.5554 56.8909C28.4368 57.1451 28.2673 57.3824 28.047 57.6196C27.8437 57.8569 27.5556 58.0094 27.1997 58.1111C26.8268 58.2128 26.471 58.1958 26.132 58.0433C25.7931 57.8908 25.5728 57.5857 25.4541 57.1281C25.3525 56.7384 25.3694 56.3994 25.5219 56.1452C25.6745 55.8741 25.9117 55.6538 26.2507 55.4673C26.5896 55.2809 26.9963 55.1284 27.4708 55.0098L27.9284 54.8912L27.8776 54.7047C27.8267 54.5183 27.742 54.3658 27.6403 54.2133C27.5217 54.0608 27.3861 53.9421 27.1997 53.8743C27.0133 53.8065 26.8099 53.7896 26.5557 53.8743C26.3015 53.9591 26.1151 54.0269 25.9795 54.1116C25.8609 54.1963 25.7592 54.2811 25.6914 54.3488C25.6236 54.4336 25.5558 54.4675 25.488 54.4844C25.3694 54.5183 25.2508 54.4844 25.1491 54.3827C25.0474 54.2811 24.9796 54.1624 24.9457 54.0438C24.9118 53.9252 24.9627 53.7896 25.0983 53.6371C25.2338 53.4846 25.4203 53.3659 25.6406 53.2304C25.8609 53.1117 26.0981 53.01 26.3354 52.9592C26.8438 52.8236 27.2675 52.8067 27.6234 52.9084C27.9792 53.01 28.2673 53.1965 28.4876 53.4676C28.708 53.7388 28.8605 54.0438 28.9622 54.3997L29.657 56.9926L29.6909 56.9756Z" fill="#8563FF"/>
<path d="M54.5521 15.6081L51.7897 16.3538C47.8072 17.4215 45.4516 21.5057 46.5192 25.4882L47.2649 28.2506C48.3325 32.2331 52.4167 34.5887 56.3993 33.5211L59.1616 32.7754C63.1442 31.7077 65.4998 27.6235 64.4321 23.641L63.6865 20.8786C62.6188 16.8961 58.5346 14.5405 54.5521 15.6081ZM59.0769 27.4202C59.0261 27.5049 58.9413 27.5896 58.8566 27.6574C58.7549 27.7252 58.6532 27.776 58.5515 27.8099C58.4668 27.8269 58.3821 27.8438 58.2973 27.8099C58.2126 27.776 58.1618 27.7422 58.1109 27.6744L57.2975 26.3186L54.7385 26.9965V28.5726C54.7215 28.6573 54.6876 28.7251 54.6198 28.7929C54.5521 28.8606 54.4843 28.8776 54.3995 28.9115C54.2979 28.9454 54.1962 28.9454 54.0775 28.9284C53.9589 28.9115 53.8572 28.8945 53.7725 28.8437C53.6878 28.7929 53.6369 28.7251 53.603 28.6403C53.603 28.6234 53.603 28.5895 53.603 28.5387L53.8572 21.3023C53.8572 21.1667 53.925 21.0481 54.0437 20.9464C54.1623 20.8447 54.2979 20.777 54.4504 20.7431C54.6029 20.7092 54.7554 20.6922 54.908 20.7261C55.0605 20.76 55.1791 20.8278 55.2469 20.9295L59.0769 27.0643C59.0769 27.0643 59.1108 27.1321 59.1277 27.149C59.1447 27.2337 59.1277 27.3185 59.0769 27.4032V27.4202Z" fill="#FFA015"/>
<path d="M54.7725 26.0644L56.84 25.5052L54.8572 22.2513L54.7725 26.0644Z" fill="#FFA015"/>
<path d="M118.374 58.9415C118.324 59.0262 118.256 59.0601 118.188 59.1109C115.595 60.9582 112.985 62.8223 110.392 64.6695C110.02 64.9407 109.647 65.1949 109.274 65.466C109.172 65.5508 109.121 65.5508 109.071 65.4152C107.698 62.3817 106.325 59.3651 104.935 56.3316C104.766 55.9758 104.597 55.6029 104.444 55.2301C104.529 55.1962 104.58 55.2301 104.647 55.247C105.851 55.569 107.037 55.891 108.24 56.213C108.393 56.2469 108.443 56.2469 108.494 56.0774C108.969 53.976 109.257 51.8746 109.172 49.7223C109.104 48.1802 108.884 46.6719 108.376 45.1975C108.206 44.6891 107.986 44.2146 107.732 43.7401C106.647 41.6725 105.088 40.0456 103.173 38.7577C102.953 38.6051 102.715 38.4696 102.478 38.334C102.444 38.317 102.376 38.3001 102.376 38.2493C102.376 38.1984 102.444 38.1645 102.495 38.1476C102.749 38.0628 103.003 38.0628 103.275 38.0628C104.359 38.0628 105.376 38.334 106.376 38.7577C108.427 39.622 110.206 40.8421 111.697 42.5029C113.392 44.401 114.375 46.6549 114.832 49.1461C115.222 51.2306 115.205 53.332 114.9 55.4335C114.782 56.1791 114.663 56.9417 114.477 57.6704C114.443 57.823 114.477 57.8738 114.629 57.9077C115.815 58.2127 117.002 58.5347 118.188 58.8567C118.256 58.8737 118.324 58.8906 118.408 58.9076L118.374 58.9415Z" fill="#FFA015"/>
<path d="M125.729 40.1812C125.729 40.1812 125.729 40.2998 125.712 40.3507C125.204 42.4352 124.695 44.5027 124.17 46.5872C124.102 46.8922 124.017 47.1803 123.95 47.4854C123.933 47.5701 123.916 47.587 123.814 47.5531C121.797 46.6041 119.781 45.672 117.747 44.7399C117.51 44.6213 117.256 44.5196 117.018 44.401C117.052 44.3502 117.086 44.3502 117.12 44.3332C117.866 43.9773 118.611 43.6215 119.374 43.2656C119.459 43.2147 119.493 43.1808 119.442 43.0791C118.764 41.8081 118.001 40.6049 117.018 39.5542C116.306 38.7916 115.544 38.1306 114.646 37.6053C114.341 37.4189 114.019 37.2833 113.68 37.1477C112.222 36.5715 110.731 36.419 109.189 36.6054C109.002 36.6224 108.833 36.6563 108.646 36.6902C108.613 36.6902 108.579 36.724 108.562 36.6902C108.545 36.6563 108.562 36.6224 108.562 36.5885C108.646 36.4359 108.782 36.3173 108.918 36.2156C109.477 35.7411 110.104 35.4361 110.799 35.2158C112.205 34.7582 113.663 34.6057 115.137 34.7921C116.832 35.0124 118.306 35.7411 119.628 36.8088C120.73 37.707 121.645 38.7746 122.407 39.9779C122.679 40.4185 122.933 40.8422 123.17 41.2997C123.221 41.4014 123.255 41.4014 123.356 41.3506C124.102 40.9947 124.831 40.6388 125.576 40.2829C125.61 40.266 125.661 40.249 125.712 40.2151L125.729 40.1812Z" fill="#FFA015"/>
<path d="M92.191 58.5009C92.0893 58.467 92.0385 58.45 91.9707 58.45C90.7674 58.128 89.5812 57.806 88.3779 57.484C88.2762 57.4502 88.1746 57.5179 88.1407 57.6196C87.6492 59.7549 87.3611 61.9241 87.4628 64.1103C87.5306 65.5847 87.7509 67.0421 88.2254 68.4487C88.3949 68.9571 88.6152 69.4486 88.8694 69.9401C89.9709 72.0415 91.564 73.6853 93.5298 74.9902C93.7332 75.1258 93.9365 75.2275 94.1399 75.3631C94.1738 75.38 94.2246 75.397 94.2246 75.4478C94.2246 75.4986 94.1738 75.5156 94.1229 75.5325C93.9874 75.5834 93.8348 75.6003 93.6823 75.6173C91.3775 75.7528 89.2761 74.5666 87.3442 73.2447C86.7849 72.8549 86.2257 72.4651 85.7173 71.9906C82.6499 69.1605 81.4805 65.3135 81.4975 60.9243C81.4975 60.382 81.5314 59.8566 81.5992 59.3143C81.7178 58.1958 81.9042 57.0943 82.1584 56.0097C82.1753 55.908 82.1245 55.8063 82.0228 55.7894C80.8365 55.4674 79.6333 55.1623 78.447 54.8403C78.3792 54.8234 78.3114 54.8064 78.2437 54.7895C78.2437 54.7048 78.3114 54.6878 78.3453 54.6709C81.0907 52.705 83.8531 50.7392 86.5985 48.7733C86.8358 48.6039 87.073 48.4344 87.3103 48.2649C87.412 48.1802 87.4628 48.1802 87.5136 48.3158C88.5304 50.5527 89.5473 52.7728 90.5471 54.9928C91.0555 56.1113 91.564 57.2298 92.0724 58.3653C92.0893 58.3992 92.1063 58.45 92.1401 58.5348L92.191 58.5009Z" fill="#8563FF"/>
<path d="M80.0742 67.9742C80.0742 67.9742 79.9725 67.9742 79.9386 67.9911C79.2099 68.1098 78.4811 68.2284 77.7694 68.347C77.7016 68.347 77.6677 68.4148 77.6846 68.4826C77.9388 69.7536 78.3117 70.9908 78.9048 72.1601C79.3115 72.9397 79.7691 73.6853 80.3792 74.3293C80.5995 74.5666 80.8368 74.7699 81.091 74.9733C82.1925 75.8376 83.4635 76.346 84.8362 76.5663C84.9718 76.5832 85.1243 76.6002 85.2599 76.6171C85.2769 76.6171 85.3108 76.6171 85.3277 76.6341C85.3277 76.668 85.3277 76.6849 85.2938 76.7019C85.226 76.7697 85.1582 76.8036 85.0735 76.8544C83.8703 77.4814 82.4298 77.3628 81.0571 77.1086C80.6673 77.0408 80.2606 76.9561 79.8708 76.8205C77.5321 76.0409 75.956 74.2446 74.8884 71.872C74.7528 71.5839 74.6511 71.2789 74.5495 70.9738C74.3461 70.3468 74.1766 69.7028 74.041 69.0419C74.041 68.991 73.9733 68.9402 73.9224 68.9571C73.1937 69.0758 72.4819 69.1944 71.7532 69.313C71.7193 69.313 71.6685 69.313 71.6346 69.33C71.6176 69.2791 71.6346 69.2622 71.6685 69.2283C72.6853 67.4997 73.6852 65.7541 74.702 64.0256C74.7867 63.873 74.8714 63.7375 74.9562 63.5849C74.9901 63.5172 75.007 63.5002 75.0748 63.568C76.1594 64.534 77.261 65.483 78.3456 66.449C78.8879 66.9235 79.4471 67.415 79.9894 67.8895C80.0064 67.9064 80.0233 67.9234 80.0572 67.9573L80.0742 67.9742Z" fill="#8563FF"/>
<path d="M91.9198 36.8257C91.9537 36.5884 91.9198 36.3851 91.869 36.2156C91.8181 36.0461 91.6486 35.9275 91.4283 35.8767C91.1911 35.8089 91.0047 35.8258 90.8691 35.9275C90.7335 36.0292 90.6318 36.1648 90.581 36.3681C90.5302 36.5376 90.5471 36.724 90.5979 36.9274C90.6488 37.1307 90.7505 37.3002 90.8691 37.4527C91.0047 37.6053 91.1402 37.7069 91.3097 37.7578L91.6825 37.8595L91.7503 37.6053C91.8181 37.3511 91.869 37.0969 91.9029 36.8426L91.9198 36.8257Z" fill="#8563FF"/>
<path d="M100.444 40.6896L101.19 37.9273C102.258 33.9447 99.902 29.8605 95.9194 28.7929L93.1571 28.0472C89.1746 26.9795 85.0904 29.3352 84.0227 33.3177L83.277 36.08C82.2094 40.0626 84.565 44.1468 88.5475 45.2145L91.3099 45.9601C95.2924 47.0278 99.3766 44.6721 100.444 40.6896ZM89.6321 38.4357C89.5304 38.4018 89.4627 38.334 89.4118 38.2154C89.361 38.0967 89.361 37.9612 89.4118 37.8086C89.4457 37.6731 89.5135 37.5714 89.6152 37.4866C89.7169 37.4019 89.8016 37.385 89.9033 37.4019L90.2592 37.5036C90.1066 37.2663 89.9711 36.9952 89.8694 36.7071C89.7677 36.402 89.7677 36.08 89.8694 35.7411C89.9711 35.3683 90.1744 35.0632 90.4625 34.8599C90.7506 34.6565 91.1404 34.6057 91.598 34.7243C91.9878 34.826 92.2589 35.0124 92.4284 35.2835C92.5809 35.5547 92.6656 35.8767 92.6487 36.2495C92.6487 36.6393 92.5639 37.063 92.4453 37.5375L92.3267 37.9951L92.5131 38.0459C92.6995 38.0967 92.869 38.1137 93.0554 38.0798C93.2418 38.0628 93.4113 37.9951 93.5638 37.8764C93.7163 37.7578 93.835 37.5714 93.9028 37.3172C93.9705 37.063 94.0044 36.8596 93.9875 36.7071C93.9875 36.5546 93.9536 36.4359 93.9197 36.3343C93.8858 36.2326 93.8858 36.1478 93.9028 36.08C93.9367 35.9614 94.0214 35.8767 94.157 35.8428C94.2925 35.8089 94.4281 35.8089 94.5467 35.8428C94.6654 35.8767 94.7671 35.9784 94.8179 36.1817C94.8687 36.3851 94.9026 36.5885 94.8857 36.8427C94.8857 37.0969 94.8518 37.3511 94.784 37.5714C94.6484 38.0798 94.4451 38.4526 94.1739 38.7068C93.9028 38.961 93.5977 39.1136 93.2588 39.1644C92.9198 39.2152 92.5809 39.1983 92.225 39.1136L89.6321 38.4187V38.4357Z" fill="#8563FF"/>
<path d="M113.002 80.6675L113.748 77.9051C114.815 73.9226 112.46 69.8384 108.477 68.7707L105.715 68.025C101.732 66.9574 97.648 69.313 96.5803 73.2955L95.8346 76.0579C94.767 80.0404 97.1226 84.1246 101.105 85.1923L103.867 85.938C107.85 87.0056 111.934 84.65 113.002 80.6675ZM100.495 78.6847C100.444 78.5999 100.41 78.4813 100.41 78.3796C100.41 78.261 100.41 78.1593 100.427 78.0407C100.444 77.9559 100.495 77.8712 100.546 77.8204C100.597 77.7695 100.665 77.7356 100.766 77.7356L102.342 77.7017L103.02 75.1428L101.664 74.3293C101.664 74.3293 101.546 74.2276 101.529 74.1429C101.512 74.0582 101.529 73.9734 101.529 73.8887C101.563 73.787 101.597 73.7023 101.681 73.6006C101.766 73.4989 101.834 73.4311 101.919 73.3803C102.003 73.3294 102.088 73.3125 102.173 73.3464C102.19 73.3464 102.224 73.3633 102.258 73.3803L108.392 77.2272C108.511 77.295 108.579 77.4136 108.596 77.5662C108.613 77.7187 108.613 77.8712 108.579 78.0237C108.545 78.1763 108.46 78.3118 108.375 78.4305C108.274 78.5491 108.155 78.6169 108.019 78.6169L100.783 78.8711C100.783 78.8711 100.698 78.8711 100.681 78.8711C100.597 78.8541 100.529 78.7863 100.478 78.7016L100.495 78.6847Z" fill="#FFA015"/>
<path d="M103.834 75.6173L103.292 77.6848L107.105 77.6001L103.834 75.6173Z" fill="#FFA015"/>
</g>
<defs>
<clipPath id="clip0_62_119502">
<rect width="130" height="130" fill="white"/>
</clipPath>
</defs>
</svg>
