<svg width="130" height="109" viewBox="0 0 130 109" fill="none" xmlns="http://www.w3.org/2000/svg">
<g clip-path="url(#clip0_57_10726)">
<path d="M111.008 18.118L53.7502 14.2888L44.0744 3.26381C42.9436 1.97885 43.8816 -0.0385482 45.6035 8.20379e-07L101.782 1.38776C102.502 1.40061 103.157 1.82465 103.491 2.46714L111.021 18.1309L111.008 18.118Z" fill="#5B4DC4"/>
<path d="M111.034 18.5035L103.414 47.8521L46.3999 41.6457L53.7499 14.2888L110.43 17.694C110.841 17.7197 111.124 18.118 111.021 18.5164L111.034 18.5035Z" fill="#6F67D3"/>
<path d="M82.2123 95.3959L58.5561 108.04C58.1192 108.271 57.618 108.335 57.1426 108.207L12.7599 96.8479C10.9352 96.3853 10.7425 93.8539 12.49 93.1343L29.2332 86.1313L82.2123 95.3959Z" fill="#6056D8"/>
<path d="M82.2121 59.5453V95.3959L29.2329 86.1313L29.4128 47.865L30.9162 48.5974C31.3403 48.6874 31.7257 48.9187 31.9956 49.2527L36.0304 54.0714L82.1992 59.5453H82.2121Z" fill="#5B4DC4"/>
<path d="M103.414 47.8521L82.2121 59.5453L36.0433 54.0714L32.0085 49.2527C31.7258 48.9187 31.3532 48.6874 30.9291 48.5974L29.9269 48.379C29.2715 48.2376 29.233 47.3253 29.8626 47.1197L46.413 41.6586L103.427 47.865L103.414 47.8521Z" fill="#7972DD"/>
<mask id="mask0_57_10726" style="mask-type:luminance" maskUnits="userSpaceOnUse" x="29" y="41" width="75" height="19">
<path d="M103.414 47.8521L82.2121 59.5453L36.0433 54.0714L32.0085 49.2527C31.7258 48.9187 31.3532 48.6874 30.9291 48.5974L29.9269 48.379C29.2715 48.2376 29.233 47.3253 29.8626 47.1197L46.413 41.6586L103.427 47.865L103.414 47.8521Z" fill="white"/>
</mask>
<g mask="url(#mask0_57_10726)">
<path d="M129.345 50.6277L90.2173 72.0223" stroke="#6748F9" stroke-width="1.02" stroke-linecap="round" stroke-linejoin="round"/>
<path d="M123.37 49.1242L84.2554 70.5189" stroke="#6748F9" stroke-width="1.02" stroke-linecap="round" stroke-linejoin="round"/>
<path d="M117.407 47.6208L78.2803 69.0155" stroke="#6748F9" stroke-width="1.02" stroke-linecap="round" stroke-linejoin="round"/>
<path d="M111.432 46.1174L72.3052 67.5121" stroke="#6748F9" stroke-width="1.02" stroke-linecap="round" stroke-linejoin="round"/>
<path d="M105.457 44.614L66.3428 66.0087" stroke="#6748F9" stroke-width="1.02" stroke-linecap="round" stroke-linejoin="round"/>
<path d="M99.4949 43.1106L60.3677 64.5053" stroke="#6748F9" stroke-width="1.02" stroke-linecap="round" stroke-linejoin="round"/>
<path d="M93.5198 41.6072L54.3926 63.0019" stroke="#6748F9" stroke-width="1.02" stroke-linecap="round" stroke-linejoin="round"/>
<path d="M87.5447 40.1038L48.4175 61.4985" stroke="#6748F9" stroke-width="1.02" stroke-linecap="round" stroke-linejoin="round"/>
<path d="M81.5823 38.6004L42.4551 59.9951" stroke="#6748F9" stroke-width="1.02" stroke-linecap="round" stroke-linejoin="round"/>
<path d="M75.6072 37.097L36.48 58.4916" stroke="#6748F9" stroke-width="1.02" stroke-linecap="round" stroke-linejoin="round"/>
<path d="M69.6321 35.5936L30.5049 57.0011" stroke="#6748F9" stroke-width="1.02" stroke-linecap="round" stroke-linejoin="round"/>
<path d="M63.6573 34.103L24.543 55.4977" stroke="#6748F9" stroke-width="1.02" stroke-linecap="round" stroke-linejoin="round"/>
<path d="M57.6951 32.5996L18.5679 53.9943" stroke="#6748F9" stroke-width="1.02" stroke-linecap="round" stroke-linejoin="round"/>
<path d="M51.72 31.0962L12.5928 52.4909" stroke="#6748F9" stroke-width="1.02" stroke-linecap="round" stroke-linejoin="round"/>
<path d="M45.7447 29.5928L6.63037 50.9874" stroke="#6748F9" stroke-width="1.02" stroke-linecap="round" stroke-linejoin="round"/>
<path d="M39.7825 28.0894L0.655273 49.484" stroke="#6748F9" stroke-width="1.02" stroke-linecap="round" stroke-linejoin="round"/>
</g>
<path d="M98.017 66.1372L87.8786 71.881C86.1439 72.8576 84.7305 71.5341 84.7305 68.8999V40.3351C84.7305 37.7009 86.1439 34.9511 87.8786 34.1929L98.017 29.747C99.6104 29.0531 100.895 30.5051 100.895 32.9851V59.9951C100.895 62.4879 99.6104 65.2249 98.017 66.1243V66.1372Z" fill="#A594F7" stroke="#6748F9" stroke-width="1.72" stroke-linecap="round" stroke-linejoin="round"/>
<path d="M96.5265 41.7871C96.7963 41.7871 97.1947 42.4296 97.1947 43.5989V51.9512C97.1947 53.8915 96.1667 55.8061 95.2415 56.2944L89.7162 59.2369C89.5877 59.314 89.4592 59.3526 89.3692 59.3526C89.0865 59.3526 88.6882 58.7229 88.6882 57.5536V48.8801C88.6882 46.8627 89.7676 44.9481 90.7442 44.4855L96.2695 41.8642C96.398 41.7999 96.488 41.7871 96.5265 41.7871ZM96.5265 40.6435C96.2952 40.6435 96.0382 40.7077 95.7684 40.8234L90.243 43.4447C88.7525 44.1514 87.5317 46.58 87.5317 48.8673V57.5408C87.5317 59.3526 88.3027 60.4833 89.3564 60.4833C89.6391 60.4833 89.9346 60.4062 90.243 60.2392L95.7684 57.2966C97.1947 56.5385 98.3383 54.1485 98.3383 51.9383V43.586C98.3383 41.7871 97.5802 40.6306 96.5265 40.6306V40.6435Z" fill="white"/>
<path d="M91.7852 48.0706L94.2909 46.837C94.4836 46.7471 94.6507 46.7728 94.7792 46.9141L95.9099 44.6012C95.7044 44.3827 95.4217 44.3185 95.1133 44.4727L90.95 46.4901C90.6287 46.6443 90.3332 46.9912 90.1147 47.4152L91.2841 48.636C91.4126 48.379 91.5925 48.1734 91.7852 48.0706Z" stroke="white" stroke-width="0.22" stroke-miterlimit="10"/>
<path d="M96.231 45.6677C96.231 45.1794 96.1025 44.8068 95.8969 44.5883L94.7661 46.9013C94.8946 47.0298 94.9717 47.261 94.9717 47.5566V52.4523L91.0782 54.444V49.484C91.0782 49.1885 91.1553 48.8801 91.2838 48.6231L90.1145 47.4024C89.8961 47.8264 89.7676 48.3404 89.7676 48.8416V57.1167L96.231 53.7501V45.6548V45.6677Z" stroke="white" stroke-width="0.22" stroke-miterlimit="10"/>
<path d="M91.7849 48.0706C91.5921 48.1605 91.4122 48.379 91.2837 48.636C91.1552 48.8929 91.0781 49.2013 91.0781 49.4969V54.4569L94.9716 52.4652V47.5694C94.9716 47.2739 94.8945 47.0426 94.766 46.9141C94.6375 46.7856 94.4704 46.7471 94.2777 46.837L91.772 48.0706H91.7849Z" stroke="white" stroke-width="0.22" stroke-miterlimit="10"/>
<path d="M91.0782 54.444L89.7676 57.1296" stroke="white" stroke-width="0.22" stroke-miterlimit="10"/>
<path d="M96.2309 53.763L94.9717 52.4523" stroke="white" stroke-width="0.22" stroke-miterlimit="10"/>
<path d="M103.414 47.8521V82.8032L82.2119 95.3959V59.5453L103.414 47.8521Z" fill="#6961D6"/>
<path d="M100.896 62.5007L97.7217 64.107" stroke="#FFD04A" stroke-width="0.65" stroke-miterlimit="10" stroke-linecap="round"/>
<path d="M96.09 64.9422L92.6592 66.6769" stroke="#FFD04A" stroke-width="0.65" stroke-miterlimit="10" stroke-linecap="round"/>
<path d="M90.8859 67.5764L87.1724 69.4653" stroke="#FFD04A" stroke-width="0.65" stroke-miterlimit="10" stroke-linecap="round"/>
<path d="M85.2319 70.4932C85.2319 70.4932 83.176 72.0223 79.501 70.9301" stroke="#FFD04A" stroke-width="0.65" stroke-miterlimit="10" stroke-linecap="round"/>
<path d="M100.356 64.4025L103.157 62.9505C103.478 62.7834 103.735 62.218 103.735 61.6912V60.4191C103.735 59.8923 103.478 59.5839 103.157 59.7509L100.356 61.1387C100.022 61.3057 99.752 61.884 99.752 62.4236V63.7343C99.752 64.274 100.022 64.5824 100.356 64.4025Z" stroke="#FFD04A" stroke-width="0.65" stroke-miterlimit="10"/>
<path d="M95.2418 67.0752L98.2743 65.4947C98.6212 65.3148 98.8911 64.7237 98.8911 64.1712V62.8477C98.8911 62.2951 98.6084 61.9868 98.2743 62.1538L95.2418 63.6572C94.882 63.8371 94.5864 64.441 94.5864 65.0064V66.3685C94.5864 66.9339 94.882 67.2423 95.2418 67.0624V67.0752Z" stroke="#FFD04A" stroke-width="0.65" stroke-miterlimit="10"/>
<path d="M89.9733 69.8122L93.25 68.1032C93.6226 67.9105 93.9182 67.2937 93.9182 66.7154V65.3405C93.9182 64.7751 93.6226 64.4539 93.25 64.6338L89.9733 66.2528C89.575 66.4456 89.2666 67.0881 89.2666 67.6792V69.1055C89.2666 69.6966 89.5878 70.0049 89.9733 69.8122Z" stroke="#FFD04A" stroke-width="0.65" stroke-miterlimit="10"/>
<path d="M84.2554 72.7933L87.8147 70.943C88.213 70.7374 88.5471 70.082 88.5471 69.491V68.0646C88.5471 67.4736 88.2259 67.1523 87.8147 67.3451L84.2554 69.1055C83.8313 69.3111 83.4844 69.9921 83.4844 70.6089V72.0994C83.4844 72.7162 83.8313 73.0375 84.2554 72.819V72.7933Z" stroke="#FFD04A" stroke-width="0.65" stroke-miterlimit="10"/>
<path d="M31.4688 64.3896L34.5784 64.8137" stroke="#FFD04A" stroke-width="0.51" stroke-miterlimit="10" stroke-linecap="round"/>
<path d="M36.1973 65.0193L39.6538 65.4819" stroke="#FFD04A" stroke-width="0.51" stroke-miterlimit="10" stroke-linecap="round"/>
<path d="M41.4526 65.726L45.2947 66.2271" stroke="#FFD04A" stroke-width="0.51" stroke-miterlimit="10" stroke-linecap="round"/>
<path d="M47.3125 66.497L51.6171 67.0752" stroke="#FFD04A" stroke-width="0.51" stroke-miterlimit="10" stroke-linecap="round"/>
<path d="M53.8784 67.3708L58.7356 68.0132" stroke="#FFD04A" stroke-width="0.51" stroke-miterlimit="10" stroke-linecap="round"/>
<path d="M61.293 68.3602L66.8183 69.0926" stroke="#FFD04A" stroke-width="0.51" stroke-miterlimit="10" stroke-linecap="round"/>
<path d="M69.7349 69.4781L76.0826 70.3133" stroke="#FFD04A" stroke-width="0.51" stroke-miterlimit="10" stroke-linecap="round"/>
<path d="M32.1626 65.6746L29.4513 65.2763C29.1429 65.2377 28.8602 64.8779 28.7959 64.4924L28.6675 63.5544C28.6161 63.1689 28.8088 62.8862 29.1172 62.9119L31.8285 63.2332C32.1497 63.2717 32.471 63.6315 32.5223 64.0427L32.6637 65.0193C32.7151 65.4305 32.4967 65.7132 32.1754 65.6618L32.1626 65.6746Z" stroke="#FFD04A" stroke-width="0.51" stroke-miterlimit="10"/>
<path d="M37.2255 66.407L34.2058 65.9702C33.8717 65.9188 33.5505 65.5461 33.4862 65.1349L33.3449 64.1584C33.2935 63.7472 33.5119 63.4516 33.846 63.4902L36.8528 63.85C37.2126 63.8885 37.5596 64.274 37.6238 64.698L37.7652 65.726C37.8294 66.1501 37.5724 66.4584 37.2126 66.407H37.2255Z" stroke="#FFD04A" stroke-width="0.51" stroke-miterlimit="10"/>
<path d="M42.5837 67.1909L39.23 66.7026C38.8573 66.6512 38.4975 66.2528 38.4461 65.8288L38.3048 64.788C38.2405 64.3639 38.4975 64.0427 38.8702 64.0941L42.2111 64.4924C42.6094 64.5438 42.9949 64.9422 43.0591 65.3919L43.2133 66.4713C43.2776 66.921 42.9949 67.2423 42.5966 67.178L42.5837 67.1909Z" stroke="#FFD04A" stroke-width="0.51" stroke-miterlimit="10"/>
<path d="M48.5585 68.0646L44.8193 67.525C44.3953 67.4607 44.0098 67.0495 43.9455 66.5869L43.7913 65.4947C43.7271 65.045 44.0098 64.7109 44.4338 64.7623L48.1602 65.212C48.6099 65.2634 49.034 65.7003 49.0982 66.1757L49.2653 67.3194C49.3295 67.7948 49.0211 68.1289 48.5714 68.0646H48.5585Z" stroke="#FFD04A" stroke-width="0.51" stroke-miterlimit="10"/>
<path d="M55.2664 69.0412L51.0517 68.4244C50.5763 68.3602 50.1522 67.9104 50.0751 67.435L49.9081 66.2785C49.8438 65.8031 50.1651 65.4562 50.6277 65.5076L54.8167 66.0087C55.3306 66.0729 55.7932 66.5355 55.8703 67.0367L56.0374 68.2574C56.1145 68.7585 55.7547 69.1183 55.2407 69.0412H55.2664Z" stroke="#FFD04A" stroke-width="0.51" stroke-miterlimit="10"/>
<path d="M62.8605 70.1463L58.0933 69.4524C57.5664 69.3753 57.0781 68.8999 57.001 68.3859L56.8211 67.1523C56.744 66.6383 57.1167 66.2785 57.6435 66.3428L62.3979 66.9082C62.9761 66.9724 63.503 67.4736 63.5801 68.0133L63.76 69.3111C63.8371 69.8507 63.4259 70.2234 62.8476 70.1334L62.8605 70.1463Z" stroke="#FFD04A" stroke-width="0.51" stroke-miterlimit="10"/>
<path d="M71.5212 71.4056L66.0729 70.6089C65.469 70.5189 64.9164 70.0049 64.8393 69.4653L64.6594 68.1546C64.5823 67.6149 65.0064 67.2294 65.6103 67.2937L71.0329 67.949C71.6882 68.0261 72.305 68.5658 72.3821 69.144L72.5748 70.5318C72.6519 71.11 72.1765 71.4955 71.5212 71.4056Z" stroke="#FFD04A" stroke-width="0.51" stroke-miterlimit="10"/>
<path d="M81.4796 72.8576L75.1961 71.9452C74.5022 71.8424 73.8726 71.2899 73.7955 70.7117L73.6027 69.3111C73.5256 68.7328 74.0139 68.3216 74.695 68.3987L80.9527 69.144C81.7237 69.234 82.4176 69.8122 82.5075 70.4418L82.7131 71.9452C82.8031 72.562 82.2377 72.9861 81.4796 72.8704V72.8576Z" stroke="#FFD04A" stroke-width="0.51" stroke-miterlimit="10"/>
<path d="M95.7557 59.9822L91.5025 62.0639C90.7444 62.4365 90.1147 63.6187 90.1147 64.7109V70.8659C90.1147 71.9581 92.4662 72.7676 93.2372 72.3693L95.7557 69.8893C96.501 69.5038 97.0921 68.3345 97.0921 67.268L98.8911 60.9074C98.8911 59.8409 96.4882 59.6224 95.7557 59.9822Z" fill="#C19738"/>
<path d="M97.7089 60.2521L93.4556 62.3337C92.6975 62.7063 92.0679 63.8885 92.0679 64.9807V71.1357C92.0679 72.2279 92.6847 72.7805 93.4556 72.3821L97.7089 70.172C98.4542 69.7865 99.0452 68.6172 99.0452 67.5507V61.537C99.0452 60.4705 98.4542 59.9051 97.7089 60.2649V60.2521Z" fill="#FFD04A"/>
<path d="M97.0923 64.4667C97.0923 63.2846 96.4241 62.6549 95.6017 63.0661C94.7793 63.4773 94.0854 64.7751 94.0854 65.9702C94.0854 66.7925 94.4067 67.3451 94.8821 67.4736L94.7022 69.0284C94.638 69.5295 94.895 69.825 95.2291 69.658L95.9744 69.2725C96.3084 69.1055 96.5526 68.5529 96.4883 68.116L96.3084 66.754C96.771 66.15 97.0923 65.2891 97.0923 64.4667Z" fill="#B28214"/>
</g>
<defs>
<clipPath id="clip0_57_10726">
<rect width="130" height="108.271" fill="white"/>
</clipPath>
</defs>
</svg>
