<svg width="58" height="35" viewBox="0 0 58 35" fill="none" xmlns="http://www.w3.org/2000/svg">
<path d="M1.94398 0H55.2909C56.3671 0 57.2348 0.8677 57.2348 1.94398V3.88796H0V1.94398C0 0.8677 0.8677 0 1.94398 0Z" fill="#FF3710"/>
<path d="M57.2432 3.88794L0 3.88796V7.77591H57.2432V3.88794Z" fill="white"/>
<path d="M57.2432 7.77591H0V11.6639H57.2432V7.77591Z" fill="#FF3710"/>
<path d="M57.2432 11.6639H0V15.5518H57.2432V11.6639Z" fill="white"/>
<path d="M57.2432 15.5602H0V19.4482H57.2432V15.5602Z" fill="#FF3710"/>
<path d="M57.2432 19.4482H0V23.3361H57.2432V19.4482Z" fill="white"/>
<path d="M57.2432 23.3361H0V27.2241H57.2432V23.3361Z" fill="#FF3710"/>
<path d="M0 31.112H57.2432V33.056C57.2432 34.1323 56.3755 35 55.2992 35H1.94398C0.8677 35 0 34.1323 0 33.056V31.112Z" fill="#FF3710"/>
<path d="M57.2432 27.2241H0V31.112H57.2432V27.2241Z" fill="white"/>
<path d="M1.66865 0H28.6174V19.4482L0 19.4482V1.66865C0 0.750894 0.750894 0 1.66865 0Z" fill="#8563FF"/>
<path d="M5.05603 3.54589L5.81526 5.08105L7.50061 5.32301L6.28249 6.51609L6.56616 8.20143L5.05603 7.40882L3.54589 8.20143L3.82957 6.51609L2.61145 5.32301L4.30513 5.08105L5.05603 3.54589Z" fill="white"/>
<path d="M11.2217 3.54589L11.9809 5.08105L13.6746 5.32301L12.4482 6.5161L12.7402 8.20144L11.2217 7.40883L9.71157 8.20144L10.0036 6.5161L8.77713 5.32301L10.4708 5.08105L11.2217 3.54589Z" fill="white"/>
<path d="M17.3957 3.54589L18.1466 5.08105L19.8403 5.32301L18.6138 6.5161L18.9058 8.20144L17.3957 7.40883L15.8856 8.20144L16.1692 6.5161L14.9511 5.32301L16.6365 5.08105L17.3957 3.54589Z" fill="white"/>
<path d="M23.5614 3.54589L24.3206 5.08105L26.006 5.32301L24.7878 6.5161L25.0715 8.20144L23.5614 7.40883L22.0513 8.20144L22.3349 6.5161L21.1168 5.32301L22.8022 5.08105L23.5614 3.54589Z" fill="white"/>
<path d="M5.05602 11.2467L5.81525 12.7735L7.5006 13.0238L6.28248 14.2169L6.56615 15.9023L5.05602 15.1013L3.54588 15.9023L3.82956 14.2169L2.61144 13.0238L4.30512 12.7735L5.05602 11.2467Z" fill="white"/>
<path d="M11.2217 11.2467L11.9809 12.7735L13.6746 13.0238L12.4482 14.2169L12.7402 15.9023L11.2217 15.1013L9.71156 15.9023L10.0036 14.2169L8.77712 13.0238L10.4708 12.7735L11.2217 11.2467Z" fill="white"/>
<path d="M17.3957 11.2467L18.1466 12.7735L19.8403 13.0238L18.6138 14.2169L18.9058 15.9023L17.3957 15.1013L15.8856 15.9023L16.1692 14.2169L14.9511 13.0238L16.6364 12.7735L17.3957 11.2467Z" fill="white"/>
<path d="M23.5614 11.2467L24.3206 12.7735L26.006 13.0238L24.7878 14.2169L25.0715 15.9023L23.5614 15.1013L22.0512 15.9023L22.3349 14.2169L21.1168 13.0238L22.8021 12.7735L23.5614 11.2467Z" fill="white"/>
</svg>
