<svg width="37" height="37" viewBox="0 0 37 37" fill="none" xmlns="http://www.w3.org/2000/svg">
<path d="M11.8964 7.97621H25.429C26.4645 7.97621 27.4092 8.39604 28.0879 9.07477L34.3294 2.83327C33.1959 1.69972 31.6355 1 29.9142 1H7.41816C5.68985 1 4.12948 1.69972 3.00293 2.83327L9.24443 9.07477C9.92316 8.39604 10.8678 7.97621 11.9034 7.97621H11.8964Z" fill="#2BA8FF" stroke="white" stroke-width="1.32" stroke-miterlimit="10"/>
<path d="M36.1563 7.26265C36.1563 5.53434 35.4566 3.97396 34.323 2.84741L28.0815 9.08892C28.7602 9.76764 29.1801 10.7123 29.1801 11.7479V29.0379H8.13948V11.7479C8.13948 10.7123 8.55931 9.76764 9.23804 9.08892L2.99654 2.84741C1.86299 3.98096 1.16327 5.54133 1.16327 7.26265V36.0002H36.1563V7.26265Z" fill="#0097FF" stroke="white" stroke-width="1.32" stroke-miterlimit="10"/>
<path d="M11.8966 7.97632C10.861 7.97632 9.91642 8.39615 9.23769 9.07488C8.55896 9.75361 8.13913 10.6982 8.13913 11.7338V29.0239H29.1937V11.7338C29.1937 10.6982 28.7739 9.75361 28.0951 9.07488C27.4164 8.39615 26.4718 7.97632 25.4362 7.97632H11.8966Z" fill="#56B9FF" stroke="white" stroke-width="1.32" stroke-miterlimit="10"/>
<path d="M8.13996 29.031L1.17075 36.0002" stroke="white" stroke-width="1.32" stroke-miterlimit="10"/>
<path d="M36.1557 36.0002L29.1935 29.031" stroke="white" stroke-width="1.32" stroke-miterlimit="10"/>
</svg>
