<svg width="30" height="30" viewBox="0 0 30 30" fill="none" xmlns="http://www.w3.org/2000/svg">
<path d="M23.718 2.796H15V0C18.246 0 21.264 1.032 23.718 2.796Z" fill="#FF3710"/>
<path d="M26.682 5.59202H15V2.79602H23.718C24.828 3.58802 25.83 4.53002 26.682 5.59202Z" fill="white"/>
<path d="M28.464 8.38798H15V5.59198H26.682C27.378 6.44998 27.978 7.38598 28.464 8.38798Z" fill="#FF3115"/>
<path d="M29.508 11.184H15V8.388H28.464C28.902 9.276 29.256 10.212 29.508 11.184Z" fill="white"/>
<path d="M29.964 13.98H15V11.184H29.508C29.748 12.084 29.904 13.02 29.964 13.98Z" fill="#FF3710"/>
<path d="M15 0V16.782H0.108C0.036 16.2 0 15.606 0 15C0 14.658 0.012 14.316 0.036 13.98C0.096 13.02 0.252 12.084 0.492 11.184C0.684 10.434 0.942 9.708 1.248 9.006C1.32 8.838 1.398 8.67 1.482 8.502C1.5 8.466 1.518 8.424 1.536 8.388C1.974 7.482 2.508 6.63 3.126 5.844C3.186 5.76 3.252 5.676 3.318 5.592C3.39 5.502 3.462 5.412 3.54 5.328C4.338 4.374 5.268 3.522 6.282 2.796C7.824 1.692 9.582 0.87 11.484 0.414C12.204 0.24 12.948 0.12 13.704 0.054H13.71C14.136 0.018 14.562 0 15 0Z" fill="#8563FF"/>
<path d="M30 15C30 15.606 29.964 16.2 29.892 16.782H15V13.98H29.964C29.988 14.316 30 14.658 30 15Z" fill="white"/>
<path d="M29.892 16.782C29.778 17.748 29.574 18.684 29.286 19.578H0.714032C0.426032 18.684 0.222032 17.748 0.108032 16.782H29.892Z" fill="#FF3710"/>
<path d="M29.286 19.578C28.974 20.556 28.56 21.492 28.056 22.374H1.94399C1.43999 21.492 1.02599 20.556 0.713989 19.578H29.286Z" fill="white"/>
<path d="M28.056 22.374C27.492 23.388 26.808 24.324 26.028 25.17H3.97197C3.19197 24.324 2.50797 23.388 1.94397 22.374H28.056Z" fill="#FF3710"/>
<path d="M26.028 25.17C25.014 26.268 23.838 27.21 22.542 27.966H7.45805C6.16205 27.21 4.98605 26.268 3.97205 25.17H26.028Z" fill="white"/>
<path d="M22.542 27.966C20.328 29.262 17.748 30 15 30C12.252 30 9.67201 29.262 7.45801 27.966H22.542Z" fill="#FF3710"/>
<path d="M12.408 11.844L12.954 12.948L14.172 13.122L13.29 13.98L13.5 15.192L12.408 14.622L11.322 15.192L11.532 13.98L10.65 13.122L11.868 12.948L12.408 11.844Z" fill="white"/>
<path d="M7.49994 11.844L8.04594 12.948L9.25794 13.122L8.38194 13.98L8.58594 15.192L7.49994 14.622L6.41394 15.192L6.61794 13.98L5.74194 13.122L6.95394 12.948L7.49994 11.844Z" fill="white"/>
<path d="M2.592 11.844L3.132 12.948L4.35 13.122L3.468 13.98L3.678 15.192L2.592 14.622L1.5 15.192L1.71 13.98L0.828003 13.122L2.046 12.948L2.592 11.844Z" fill="white"/>
<path d="M12.408 7.32001L12.954 8.41801L14.172 8.59801L13.29 9.45601L13.5 10.662L12.408 10.092L11.322 10.662L11.532 9.45601L10.65 8.59801L11.868 8.41801L12.408 7.32001Z" fill="white"/>
<path d="M7.49994 7.32001L8.04594 8.41801L9.25794 8.59801L8.38194 9.45601L8.58594 10.662L7.49994 10.092L6.41394 10.662L6.61794 9.45601L5.74194 8.59801L6.95394 8.41801L7.49994 7.32001Z" fill="white"/>
<path d="M3.46805 9.45601L3.67805 10.662L2.59205 10.092L1.50005 10.662L1.71005 9.45601L1.24805 9.00601C1.32005 8.83801 1.39805 8.67001 1.48205 8.50201L2.04605 8.41801L2.59205 7.32001L3.13205 8.41801L4.35005 8.59801L3.46805 9.45601Z" fill="white"/>
<path d="M12.408 2.79004L12.954 3.88804L14.172 4.06804L13.29 4.92604L13.5 6.13804L12.408 5.56204L11.322 6.13804L11.532 4.92604L10.65 4.06804L11.868 3.88804L12.408 2.79004Z" fill="white"/>
<path d="M13.29 0.462016L13.5 1.67402L12.408 1.10402L11.322 1.67402L11.532 0.462016L11.484 0.414016C12.204 0.240016 12.948 0.120016 13.704 0.0540161L13.29 0.462016Z" fill="white"/>
<path d="M7.49994 2.79004L8.04594 3.88804L9.25794 4.06804L8.38194 4.92604L8.58594 6.13804L7.49994 5.56204L6.41394 6.13804L6.61794 4.92604L5.74194 4.06804L6.95394 3.88804L7.49994 2.79004Z" fill="white"/>
<path d="M3.67798 6.138L3.12598 5.844C3.18598 5.76 3.25198 5.676 3.31798 5.592C3.38998 5.502 3.46198 5.412 3.53998 5.328L3.67798 6.138Z" fill="white"/>
</svg>
