<svg width="42" height="32" viewBox="0 0 42 32" fill="none" xmlns="http://www.w3.org/2000/svg">
<path d="M31.9154 14.3147C31.834 14.3635 31.7526 14.4205 31.7038 14.5018C31.6061 14.6402 31.5736 14.7867 31.655 14.9413C31.7363 15.0959 31.8665 15.1528 32.0374 15.161C32.192 15.161 32.3222 15.104 32.4524 15.0145C33.2092 14.4937 33.909 13.8997 34.5519 13.2405C34.674 13.1103 34.7472 13.1266 34.8611 13.2405C35.3412 13.6881 35.8783 14.0543 36.4479 14.3716C36.6758 14.5018 36.8874 14.453 37.0013 14.2496C37.1234 14.0299 37.0664 13.8264 36.8385 13.6881C36.334 13.3951 35.8702 13.0371 35.4308 12.6465C35.2761 12.5081 35.2843 12.4349 35.4063 12.2803C36.0004 11.5479 36.4724 10.7504 36.6351 9.79835C36.6677 9.61119 36.7734 9.65188 36.8874 9.65188C37.2047 9.65188 37.3675 9.38334 37.2047 9.09853C37.1234 8.95205 36.9932 8.90323 36.8385 8.88696C36.3259 8.84627 35.8214 8.7893 35.3168 8.74861C35.1866 8.74048 35.1378 8.69979 35.1459 8.56145C35.1541 8.37429 35.1459 8.18713 35.1459 8.0081C35.1378 7.73143 34.9181 7.52799 34.6577 7.53612C34.4217 7.54426 34.3078 7.69888 34.3078 8.0081C34.3078 8.0732 34.3078 8.1383 34.3078 8.21154C34.3078 8.28478 34.3078 8.35801 34.3078 8.43125C34.3322 8.61841 34.2671 8.6591 34.0718 8.63469C33.4289 8.55331 32.7779 8.50449 32.1269 8.44753C31.8665 8.42312 31.6468 8.57773 31.6061 8.79744C31.5654 9.00902 31.7282 9.25314 31.9642 9.31824C32.0618 9.35079 32.1676 9.35893 32.2734 9.36707C33.4208 9.4403 34.56 9.52168 35.7074 9.57864C35.9109 9.58678 35.9109 9.66001 35.8702 9.82277C35.6749 10.5633 35.2599 11.1817 34.796 11.7676C34.7065 11.8816 34.674 11.8083 34.6251 11.7432C34.3485 11.377 34.1125 10.9783 33.9579 10.547C33.8439 10.2215 33.5917 10.0832 33.3069 10.189C33.0546 10.2866 32.9814 10.5145 33.1116 10.8481C33.3231 11.4096 33.6324 11.906 34.0148 12.3698C34.1043 12.4756 34.1125 12.5326 34.0067 12.6302C33.3557 13.2487 32.6721 13.8264 31.9154 14.3065V14.3147Z" fill="#EF9300"/>
<path d="M16.4541 21.7604H38.8404C39.8576 21.7604 40.6876 20.9304 40.6876 19.9132V7.63372C40.6876 6.61653 39.8576 5.7865 38.8404 5.7865H35.8783L36.6595 2.9465C36.8711 2.18971 35.919 1.66891 35.3901 2.24668L29.9542 5.77836H16.4541C15.4369 5.77836 14.6068 6.60839 14.6068 7.62558V19.9051C14.6068 20.9223 15.4369 21.7523 16.4541 21.7523V21.7604Z" stroke="#EF9300" stroke-width="2.53" stroke-linecap="round" stroke-linejoin="round"/>
<path d="M3.6619 23.3635H5.67186L4.66281 19.9132L3.6619 23.3635Z" fill="#8563FF"/>
<path d="M24.2335 12.2395H1.84722C0.830027 12.2395 0 13.0695 0 14.0867V26.3662C0 27.3834 0.830027 28.2135 1.84722 28.2135H4.80927L4.02807 31.0534C3.8165 31.8102 4.76859 32.331 5.29752 31.7533L10.7334 28.2216H24.2335C25.2507 28.2216 26.0807 27.3916 26.0807 26.3744V14.0949C26.0807 13.0777 25.2507 12.2476 24.2335 12.2476V12.2395ZM7.25053 25.642C7.17729 25.7071 7.09592 25.7641 6.99013 25.8047C6.88434 25.8454 6.78669 25.8617 6.6809 25.8617C6.59139 25.8617 6.51815 25.8454 6.45305 25.8129C6.38795 25.7803 6.34726 25.7234 6.31471 25.642L5.8997 24.2179H3.40962L3.01088 25.642C2.99461 25.7234 2.94578 25.7803 2.87254 25.8129C2.79931 25.8454 2.72607 25.8617 2.63656 25.8617C2.53891 25.8617 2.44126 25.8454 2.33547 25.8047C2.22968 25.7641 2.14017 25.7152 2.07507 25.6501C2.00997 25.585 1.97742 25.5118 1.97742 25.4223C1.97742 25.406 1.97742 25.3735 1.98555 25.3328L3.98738 18.8228C4.02807 18.7007 4.10945 18.6112 4.23965 18.5542C4.36985 18.4973 4.50818 18.4647 4.65466 18.4647C4.80114 18.4647 4.94761 18.4973 5.07781 18.5542C5.20801 18.6112 5.29752 18.7007 5.33007 18.8228L7.32377 25.3328C7.32377 25.3328 7.34004 25.406 7.34004 25.4223C7.34004 25.5037 7.30749 25.5769 7.23425 25.642H7.25053Z" fill="#8563FF"/>
</svg>
