<svg width="30" height="30" viewBox="0 0 30 30" fill="none" xmlns="http://www.w3.org/2000/svg">
<path d="M15 0.15C16.668 0.15 18.294 0.426 19.848 0.966V29.034C18.294 29.574 16.668 29.85 15 29.85C13.332 29.85 11.706 29.574 10.152 29.034V0.966C11.706 0.426 13.332 0.15 15 0.15ZM15 0C13.248 0 11.568 0.3 10.002 0.858V29.142C11.568 29.7 13.248 30 15 30C16.752 30 18.432 29.7 19.998 29.142V0.858C18.432 0.3 16.752 0 15 0Z" fill="#8563FF"/>
<path d="M4.392 4.39197C1.68 7.10997 0 10.854 0 15C0 21.534 4.176 27.09 10.002 29.142V0.857971C7.866 1.60797 5.958 2.82597 4.392 4.39197Z" fill="#8563FF"/>
<path d="M25.608 4.39197C24.042 2.82597 22.134 1.60797 19.998 0.857971V29.142C22.134 28.392 24.042 27.174 25.608 25.608C28.32 22.89 30 19.146 30 15C30 10.854 28.32 7.10997 25.608 4.39197Z" fill="#FF3710"/>
</svg>
