<svg width="38" height="25" viewBox="0 0 38 25" fill="none" xmlns="http://www.w3.org/2000/svg">
<path d="M26.2103 13.9042C25.0709 13.9042 24.1682 13.019 24.1594 11.8884C24.1594 10.7315 25.0534 9.82876 26.2103 9.82876C27.3409 9.83752 28.2349 10.7403 28.2349 11.8709C28.2349 13.0015 27.3409 13.8955 26.2103 13.9042ZM26.2103 8.28622C25.0709 8.28622 24.1594 7.37472 24.1682 6.22657C24.177 5.09596 25.0885 4.1932 26.2191 4.20197C27.3497 4.21073 28.2437 5.11347 28.2437 6.24409C28.2437 7.37471 27.3322 8.28622 26.2103 8.28622ZM31.3112 11.31C30.1719 11.31 29.2603 10.3897 29.2691 9.24154C29.2691 8.11969 30.1806 7.21695 31.3112 7.21695C32.4419 7.22571 33.3446 8.13722 33.3446 9.26783C33.3358 10.3897 32.4331 11.3012 31.3112 11.31Z" fill="#EF9300"/>
<path d="M37.7356 15.6483V18.374C37.6918 18.8473 37.648 19.3206 37.5866 19.7939C37.4551 20.8632 37.35 21.9412 36.9293 22.9491C36.5086 23.957 35.8074 24.6669 34.7031 24.8948C34.4928 24.9474 34.2736 24.9649 34.0545 25H33.9757C32.9502 24.9211 32.1439 24.3602 31.3726 23.7467C29.6723 22.3969 28.2174 20.8106 26.7975 19.1804C26.2541 18.5493 25.5618 18.225 24.7291 18.225C20.8377 18.2338 16.9463 18.2338 13.0461 18.225C12.1872 18.225 11.5035 18.5669 10.9163 19.1979C9.74188 20.46 8.58497 21.7221 7.34042 22.9053C6.34127 23.8606 5.30706 24.8072 3.83463 25H3.61552C3.41393 24.9649 3.20359 24.9386 3.002 24.8948C1.73992 24.6056 1.0037 23.7467 0.679418 22.5722C0.416483 21.5906 0.249958 20.5827 0.144784 19.5748C-0.223324 16.1041 0.109727 12.6947 1.1527 9.36417C1.90644 6.98023 2.93189 4.73653 4.54455 2.80834C6.2098 0.818806 8.32204 -0.206633 10.9601 0.0475371C12.7218 0.214062 14.3082 0.871391 15.7631 1.86178C16.4993 2.36135 17.2969 2.62429 18.1821 2.60676C18.6378 2.598 19.0936 2.598 19.5406 2.60676C20.4345 2.62429 21.2321 2.36136 21.9683 1.87055C22.4241 1.56379 22.8974 1.27455 23.3969 1.03791C25.1586 0.178995 26.9991 -0.250459 28.9624 0.152707C31.0133 0.573401 32.5295 1.79167 33.7127 3.45692C35.8688 6.49819 37.0345 9.93386 37.5165 13.6149C37.6041 14.2898 37.6655 14.9734 37.7356 15.6483Z" fill="#EF9300"/>
<path d="M28.2349 6.24409C28.2349 7.37471 27.3234 8.28622 26.2016 8.28622C25.0622 8.28622 24.1507 7.37472 24.1595 6.22657C24.1682 5.09596 25.0797 4.1932 26.2103 4.20197C27.341 4.21073 28.2349 5.11347 28.2349 6.24409Z" fill="#FFF1D7"/>
<path d="M33.3359 9.2678C33.3271 10.3897 32.4244 11.3012 31.3025 11.3099C30.1631 11.3099 29.2516 10.3897 29.2604 9.24151C29.2604 8.11966 30.1719 7.21692 31.3025 7.21692C32.4331 7.22568 33.3359 8.13719 33.3359 9.2678Z" fill="#DDB773"/>
<path d="M28.2349 11.8709C28.2349 13.0015 27.3409 13.8955 26.2103 13.9042C25.0709 13.9042 24.1682 13.019 24.1594 11.8884C24.1594 10.7315 25.0534 9.82874 26.2103 9.82874C27.3409 9.8375 28.2349 10.7402 28.2349 11.8709Z" fill="#F9D885"/>
<path d="M11.7093 8.81707H10.1142V7.22193C10.1142 6.62595 9.63217 6.13513 9.02742 6.13513C8.42267 6.13513 7.94063 6.61718 7.94063 7.22193V8.81707H6.34549C5.74951 8.81707 5.2587 9.29911 5.2587 9.90386C5.2587 10.5086 5.74074 10.9907 6.34549 10.9907H7.94063V12.5858C7.94063 13.1818 8.42267 13.6726 9.02742 13.6726C9.63217 13.6726 10.1142 13.1905 10.1142 12.5858V10.9907H11.7093C12.3053 10.9907 12.7961 10.5086 12.7961 9.90386C12.7961 9.29911 12.3141 8.81707 11.7093 8.81707Z" fill="#FFF1D7"/>
</svg>
