<svg width="30" height="30" viewBox="0 0 30 30" fill="none" xmlns="http://www.w3.org/2000/svg">
<path d="M26.864 14.6063L15.5077 5.1697C15.2137 4.92374 14.7878 4.92374 14.4938 5.1697L3.13753 14.6063C3.02955 14.6963 2.90956 14.7743 2.78958 14.8343L2.90356 15.4522L5.3152 28.8601C5.41119 29.5141 5.9751 30 6.635 30H8.10478V24.0189C8.10478 22.981 8.94466 22.1412 9.9825 22.1412H12.0222C13.06 22.1412 13.8999 22.981 13.8999 24.0189V30H23.3665C24.0264 30 24.5843 29.5141 24.6863 28.8601L27.0979 15.4522L27.2119 14.8343C27.0859 14.7743 26.972 14.6963 26.864 14.6063ZM19.6231 18.2057C17.8833 18.2057 16.4735 16.79 16.4735 15.0502C16.4735 13.3105 17.8833 11.8887 19.6231 11.8887C21.3628 11.8887 22.7786 13.3045 22.7786 15.0502C22.7786 16.796 21.3628 18.2057 19.6231 18.2057Z" fill="#F9D885"/>
<path d="M13.8999 24.019V30.0001H8.1048V24.019C8.1048 22.9811 8.94467 22.1412 9.98252 22.1412H12.0222C13.0601 22.1412 13.8999 22.9811 13.8999 24.019Z" fill="#FFD664"/>
<path d="M22.7786 15.0502C22.7786 16.7899 21.3628 18.2057 19.6231 18.2057C17.8833 18.2057 16.4735 16.7899 16.4735 15.0502C16.4735 13.3105 17.8833 11.8887 19.6231 11.8887C21.3628 11.8887 22.7786 13.3045 22.7786 15.0502Z" fill="#FFD664"/>
<path d="M27.6438 12.4406L27.2119 14.8343C27.0859 14.7743 26.9719 14.6963 26.864 14.6063L15.5077 5.16971C15.2137 4.92375 14.7878 4.92375 14.4938 5.16971L3.13752 14.6063C3.02953 14.6963 2.90955 14.7743 2.78957 14.8343L2.35764 12.4406L14.9977 2.25415L27.6438 12.4406Z" fill="#FFD664"/>
<path d="M28.4777 14.8103C28.4117 14.8943 28.3337 14.9723 28.2498 15.0383C28.1958 15.0443 28.1358 15.0503 28.0818 15.0503C27.7818 15.0503 27.4819 14.9783 27.2119 14.8343C27.0859 14.7743 26.972 14.6963 26.864 14.6064L15.5077 5.16977C15.2137 4.92381 14.7878 4.92381 14.4938 5.16977L3.13753 14.6064C3.02954 14.6963 2.90956 14.7743 2.78958 14.8343C2.46563 15.0023 2.10568 15.0743 1.75174 15.0383C1.66775 14.9723 1.58976 14.8943 1.51777 14.8103C1.24181 14.4744 1.10983 14.0724 1.10983 13.6765C1.10983 13.1666 1.3258 12.6627 1.75174 12.3087L14.5298 1.6843C14.8058 1.46233 15.1957 1.46233 15.4717 1.6843L28.2498 12.3087C29.0056 12.9326 29.1076 14.0544 28.4777 14.8103Z" fill="#CC913B"/>
<path d="M29.5576 14.3543C29.2156 14.7623 28.7417 14.9962 28.2498 15.0382C28.1958 15.0442 28.1358 15.0502 28.0818 15.0502C27.7818 15.0502 27.4819 14.9783 27.2119 14.8343C27.0859 14.7743 26.972 14.6963 26.864 14.6063L15.5077 5.16972C15.2137 4.92376 14.7878 4.92376 14.4938 5.16972L3.13753 14.6063C3.02955 14.6963 2.90956 14.7743 2.78958 14.8343C2.46563 15.0022 2.10568 15.0742 1.75174 15.0382C1.25981 14.9962 0.779883 14.7623 0.443933 14.3543C0.149978 13.9944 0 13.5625 0 13.1305C0 12.5786 0.239964 12.0387 0.695896 11.6548L14.4938 0.184472C14.7878 -0.0614908 15.2137 -0.0614908 15.5077 0.184472L29.3056 11.6548C30.1215 12.3326 30.2295 13.5385 29.5576 14.3543Z" fill="#8563FF"/>
<path d="M13.8999 24.019V30.0001H8.1048V24.019C8.1048 22.9811 8.94467 22.1412 9.98252 22.1412H12.0222C13.0601 22.1412 13.8999 22.9811 13.8999 24.019Z" fill="#EF9300"/>
<path d="M22.7786 15.0502C22.7786 16.7899 21.3628 18.2057 19.6231 18.2057C17.8833 18.2057 16.4735 16.7899 16.4735 15.0502C16.4735 13.3105 17.8833 11.8887 19.6231 11.8887C21.3628 11.8887 22.7786 13.3045 22.7786 15.0502Z" fill="#CE912E"/>
</svg>
