<svg width="33" height="30" viewBox="0 0 33 30" fill="none" xmlns="http://www.w3.org/2000/svg">
<path d="M31.1367 8.18005H1.72141V30H31.1367V8.18005Z" fill="#FFF1D7"/>
<path d="M10.9527 8.40344C10.9527 11.4258 8.50199 13.8765 5.47965 13.8765C2.45731 13.8765 0.0065918 11.4258 0.0065918 8.40344" fill="#EF9300"/>
<path d="M21.9054 8.40344C21.9054 11.4258 19.4547 13.8765 16.4323 13.8765C13.41 13.8765 10.9593 11.4258 10.9593 8.40344" fill="#FFD664"/>
<path d="M32.8515 8.40344C32.8515 11.4258 30.4008 13.8765 27.3785 13.8765C24.3561 13.8765 21.9054 11.4258 21.9054 8.40344" fill="#EF9300"/>
<path d="M11.6426 0H2.77924C2.37188 0 2.01051 0.282527 1.91196 0.676745L0 8.40342H10.9527L11.6426 0Z" fill="#FFA015"/>
<path d="M21.2089 0H11.6426L10.9527 8.40342H21.9054L21.2089 0Z" fill="#F9D885"/>
<path d="M30.0788 0H21.2089L21.8988 8.40342H32.8515L30.9395 0.676745C30.841 0.275957 30.4862 0 30.0723 0H30.0788Z" fill="#FFA015"/>
<path d="M7.57556 19.4744C9.44153 19.4744 10.9527 20.9855 10.9527 22.8515V30H4.19843V22.8515C4.19843 20.9855 5.7096 19.4744 7.57556 19.4744Z" fill="#F7C963"/>
<path d="M26.2221 14.9868H20.6242C19.9855 14.9868 19.4678 15.5045 19.4678 16.1432V22.8055C19.4678 23.4441 19.9855 23.9618 20.6242 23.9618H26.2221C26.8607 23.9618 27.3784 23.4441 27.3784 22.8055V16.1432C27.3784 15.5045 26.8607 14.9868 26.2221 14.9868Z" fill="#DDB773"/>
</svg>
