<svg width="130" height="119" viewBox="0 0 130 119" fill="none" xmlns="http://www.w3.org/2000/svg">
<g clip-path="url(#clip0_106_6637)">
<path d="M59.15 59.189H126.1C128.258 59.189 130 57.447 130 55.289V3.9C130 1.742 128.258 0 126.1 0H3.9C1.742 0 0 1.742 0 3.9V55.289C0 57.447 1.742 59.189 3.9 59.189H59.15Z" fill="#FFA015"/>
<path d="M55.25 100.451H3.9C1.74609 100.451 0 102.197 0 104.351V114.413C0 116.567 1.74609 118.313 3.9 118.313H55.25C57.4039 118.313 59.15 116.567 59.15 114.413V104.351C59.15 102.197 57.4039 100.451 55.25 100.451Z" fill="#FFA015"/>
<path d="M126.1 100.451H74.7501C72.5962 100.451 70.8501 102.197 70.8501 104.351V114.413C70.8501 116.567 72.5962 118.313 74.7501 118.313H126.1C128.254 118.313 130 116.567 130 114.413V104.351C130 102.197 128.254 100.451 126.1 100.451Z" fill="#FFA015"/>
<path d="M126.1 70.889H74.7501C72.5962 70.889 70.8501 72.6351 70.8501 74.789V84.851C70.8501 87.0049 72.5962 88.751 74.7501 88.751H126.1C128.254 88.751 130 87.0049 130 84.851V74.789C130 72.6351 128.254 70.889 126.1 70.889Z" fill="#FFA015"/>
<path d="M55.25 70.889H3.9C1.74609 70.889 0 72.6351 0 74.789V84.851C0 87.0049 1.74609 88.751 3.9 88.751H55.25C57.4039 88.751 59.15 87.0049 59.15 84.851V74.789C59.15 72.6351 57.4039 70.889 55.25 70.889Z" fill="#FFA015"/>
</g>
<defs>
<clipPath id="clip0_106_6637">
<rect width="130" height="118.3" fill="white"/>
</clipPath>
</defs>
</svg>
