<svg width="130" height="133" viewBox="0 0 130 133" fill="none" xmlns="http://www.w3.org/2000/svg">
<g clip-path="url(#clip0_106_6638)">
<path d="M18.7579 37.5159C29.1177 37.5159 37.5159 29.1177 37.5159 18.7579C37.5159 8.39821 29.1177 0 18.7579 0C8.39821 0 0 8.39821 0 18.7579C0 29.1177 8.39821 37.5159 18.7579 37.5159Z" fill="#FFA015"/>
<path d="M18.7579 85.116C27.0114 85.116 34.0044 79.7738 36.5104 72.3606H47.24C49.746 79.7738 56.739 85.116 64.9925 85.116C75.3469 85.116 83.7504 76.7125 83.7504 66.3581C83.7504 58.1046 78.4082 51.1116 70.995 48.6056V36.5255C78.4082 34.0194 83.7504 27.0264 83.7504 18.7729C83.7504 8.41856 75.3469 0.015007 64.9925 0.015007C54.6381 0.015007 46.2346 8.41856 46.2346 18.7729C46.2346 27.0264 51.5768 34.0344 58.99 36.5255V48.6056C53.4676 50.4664 49.1008 54.8332 47.24 60.3555H36.5104C34.0044 52.9424 27.0114 47.6001 18.7579 47.6001C8.40355 47.6001 0 56.0037 0 66.3581C0 76.7125 8.40355 85.116 18.7579 85.116Z" fill="#FFA015"/>
<path d="M130 66.3581C130 58.1046 124.658 51.1116 117.245 48.6056V36.5255C124.658 34.0194 130 27.0264 130 18.7729C130 8.41856 121.597 0.015007 111.242 0.015007C100.888 0.015007 92.4843 8.41856 92.4843 18.7729C92.4843 27.0264 97.8265 34.0344 105.24 36.5255V48.6056C97.8265 51.1116 92.4843 58.1046 92.4843 66.3581C92.4843 74.6116 97.8265 81.6195 105.24 84.1106V96.1907C99.7173 98.0515 95.3505 102.418 93.4897 107.941H82.7602C80.2541 100.528 73.2611 95.1853 65.0076 95.1853C56.7542 95.1853 49.7462 100.528 47.2551 107.941H36.5256C34.0195 100.528 27.0266 95.1853 18.7731 95.1853C8.41869 95.1853 0.0151367 103.589 0.0151367 113.943C0.0151367 124.298 8.41869 132.701 18.7731 132.701C27.0266 132.701 34.0195 127.359 36.5256 119.946H47.2551C49.7612 127.359 56.7542 132.701 65.0076 132.701C73.2611 132.701 80.2541 127.359 82.7602 119.946H93.4897C95.9958 127.359 102.989 132.701 111.242 132.701C121.597 132.701 130 124.298 130 113.943C130 105.69 124.658 98.6967 117.245 96.1907V84.1106C124.658 81.6045 130 74.6116 130 66.3581Z" fill="#FFA015"/>
</g>
<defs>
<clipPath id="clip0_106_6638">
<rect width="130" height="132.716" fill="white"/>
</clipPath>
</defs>
</svg>
