<svg width="80" height="80" viewBox="0 0 80 80" fill="none" xmlns="http://www.w3.org/2000/svg">
<g clip-path="url(#clip0_18_499)">
<path d="M63.3096 0.632202H16.6904C7.82169 0.632202 0.632202 7.82169 0.632202 16.6904V63.3096C0.632202 72.1783 7.82169 79.3678 16.6904 79.3678H63.3096C72.1783 79.3678 79.3678 72.1783 79.3678 63.3096V16.6904C79.3678 7.82169 72.1783 0.632202 63.3096 0.632202Z" fill="white"/>
<path d="M63.3096 1.26442C71.8192 1.26442 78.7356 8.18081 78.7356 16.6904V63.3096C78.7356 71.8192 71.8192 78.7356 63.3096 78.7356H16.6904C8.18081 78.7356 1.26442 71.8192 1.26442 63.3096V16.6904C1.26442 8.18081 8.18081 1.26442 16.6904 1.26442H63.3096ZM63.3096 0H16.6904C7.47274 0 0 7.47274 0 16.6904V63.3096C0 72.5273 7.47274 80 16.6904 80H63.3096C72.5273 80 80 72.5273 80 63.3096V16.6904C80 7.47274 72.5273 0 63.3096 0Z" fill="#BF27FF"/>
<path d="M30.7381 25.5919H49.2619C50.6781 25.5919 51.9678 26.1736 52.9035 27.0966L61.4509 18.5491C59.9083 17.0065 57.7588 16.0455 55.407 16.0455H24.6057C22.2412 16.0455 20.1043 17.0065 18.5617 18.5491L27.1092 27.0966C28.0449 26.1609 29.322 25.5919 30.7508 25.5919H30.7381Z" fill="white" stroke="#BF27FF" stroke-miterlimit="10"/>
<path d="M63.9545 24.6057C63.9545 22.2412 62.9935 20.1044 61.4509 18.5618L52.9034 27.1093C53.8391 28.0449 54.4081 29.322 54.4081 30.7508V54.4208H25.5919V30.7508C25.5919 29.3346 26.1736 28.0449 27.0966 27.1093L18.5491 18.5618C17.0065 20.1044 16.0455 22.2539 16.0455 24.6057V63.9545H63.9545V24.6057Z" fill="white" stroke="#BF27FF" stroke-miterlimit="10"/>
<path d="M30.7381 25.5919C29.322 25.5919 28.0323 26.1736 27.0966 27.0966C26.1609 28.0196 25.5919 29.3093 25.5919 30.7381V54.4081H54.4207V30.7381C54.4207 29.322 53.8391 28.0323 52.9161 27.0966C51.9931 26.1609 50.7033 25.5919 49.2745 25.5919H30.7508H30.7381Z" fill="white" stroke="#BF27FF" stroke-miterlimit="10"/>
<path d="M25.5919 54.4081L16.0455 63.9545" stroke="#BF27FF" stroke-miterlimit="10"/>
<path d="M63.9545 63.9545L54.4081 54.4081" stroke="#BF27FF" stroke-miterlimit="10"/>
</g>
<defs>
<clipPath id="clip0_18_499">
<rect width="80" height="80" fill="white"/>
</clipPath>
</defs>
</svg>
