<svg width="47" height="35" viewBox="0 0 47 35" fill="none" xmlns="http://www.w3.org/2000/svg">
<path d="M20.3989 0.378906C20.484 0.39437 20.5303 0.456226 20.5767 0.494886C22.7185 2.25776 24.8602 4.02063 26.9942 5.7835C27.3035 6.03865 27.605 6.2938 27.922 6.54122C28.0148 6.61081 28.0225 6.64946 27.922 6.72678C25.6875 8.55924 23.4607 10.3994 21.2262 12.2319C20.9556 12.4561 20.6927 12.6726 20.4221 12.8968C20.3757 12.835 20.3912 12.7809 20.3912 12.7267C20.3912 11.652 20.3912 10.5773 20.3912 9.4948C20.3912 9.36336 20.368 9.30924 20.2211 9.31697C18.3577 9.38655 16.5175 9.61851 14.7314 10.1829C13.4557 10.585 12.234 11.1108 11.1206 11.8608C10.7418 12.1159 10.3861 12.4097 10.0459 12.7267C8.56138 14.0953 7.54077 15.7654 6.8913 17.6751C6.81398 17.8994 6.75985 18.1313 6.69027 18.3555C6.68253 18.3942 6.69027 18.4483 6.64388 18.4561C6.59748 18.4638 6.56656 18.4251 6.53563 18.3865C6.41192 18.1932 6.35006 17.969 6.29594 17.7525C6.05625 16.8401 6.05625 15.92 6.17996 14.9999C6.44285 13.0901 7.06913 11.3118 8.12067 9.69583C9.33457 7.84018 11.0047 6.51029 12.9918 5.567C14.6618 4.77834 16.417 4.31443 18.2494 4.10567C18.9067 4.02835 19.5639 3.97424 20.2288 3.95877C20.368 3.95877 20.3912 3.91237 20.3912 3.78093C20.3912 2.71393 20.3912 1.64694 20.3912 0.579937C20.3912 0.518082 20.3912 0.456227 20.3912 0.38664L20.3989 0.378906Z" fill="#FFA015"/>
<path d="M25.9114 22.461C25.9114 22.546 25.9114 22.6001 25.9114 22.6543C25.9114 23.729 25.9114 24.8037 25.9114 25.8862C25.9114 25.979 25.9887 26.0563 26.0815 26.0486C27.9835 25.979 29.8624 25.7316 31.6871 25.1517C32.9165 24.7573 34.084 24.247 35.1587 23.528C35.553 23.2651 35.9087 22.9713 36.2567 22.6465C37.7721 21.2471 38.8004 19.5461 39.4499 17.6053C39.5118 17.412 39.5659 17.211 39.62 17.01C39.6278 16.9791 39.6278 16.9327 39.6664 16.9172C39.7051 16.9095 39.7437 16.9404 39.7669 16.9791C39.8442 17.0873 39.8906 17.211 39.937 17.3347C40.5633 19.2368 40.0453 21.2703 39.3649 23.1955C39.1638 23.7522 38.9551 24.3089 38.6845 24.8347C36.9989 28.0357 34.0376 29.8836 30.3495 30.8733C29.901 30.997 29.4371 31.082 28.9809 31.1516C28.0145 31.2985 27.048 31.399 26.0738 31.43C25.9887 31.43 25.9191 31.4995 25.9191 31.5923C25.9191 32.6671 25.9191 33.7341 25.9191 34.8088C25.9191 34.8707 25.9191 34.9325 25.9191 34.9944C25.8495 35.0176 25.8263 34.9634 25.7877 34.9325C23.5145 33.0614 21.2491 31.198 18.9836 29.3269C18.7903 29.1645 18.597 29.0021 18.396 28.8475C18.3109 28.7779 18.2877 28.7393 18.396 28.662C20.0429 27.3166 21.682 25.9635 23.3212 24.6104C24.1485 23.93 24.9758 23.2496 25.8031 22.5692C25.8341 22.546 25.865 22.5228 25.9268 22.4764L25.9114 22.461Z" fill="#8563FF"/>
<path d="M7.77937 27.5487C7.5706 27.5796 7.4005 27.6415 7.27679 27.7342C7.15308 27.827 7.0835 27.9739 7.0835 28.175C7.0835 28.3837 7.13762 28.5383 7.2536 28.6311C7.36958 28.7239 7.50875 28.778 7.68658 28.778C7.84122 28.778 7.99586 28.7317 8.14276 28.6389C8.2974 28.5461 8.42111 28.4301 8.52163 28.2832C8.62214 28.144 8.67626 27.9971 8.67626 27.8502V27.51H8.44431C8.21235 27.51 7.98813 27.5255 7.77937 27.5487Z" fill="#8563FF"/>
<path d="M9.11751 19.5387H6.63557C3.05571 19.5387 0.15625 22.4382 0.15625 26.018V28.5C0.15625 32.0798 3.05571 34.9793 6.63557 34.9793H9.11751C12.6974 34.9793 15.5968 32.0798 15.5968 28.5V26.018C15.5968 22.4382 12.6974 19.5387 9.11751 19.5387ZM9.65101 29.1262C9.65101 29.2113 9.60462 29.2886 9.51957 29.3505C9.42678 29.4123 9.31854 29.451 9.17936 29.451C9.05565 29.451 8.94741 29.4201 8.86236 29.3505C8.77731 29.2886 8.73092 29.2113 8.73092 29.1262V28.8015C8.56855 28.9871 8.37525 29.1572 8.14329 29.3041C7.91133 29.451 7.64072 29.5283 7.32371 29.5283C6.98351 29.5283 6.6897 29.4278 6.45001 29.2268C6.21032 29.0257 6.08661 28.7164 6.08661 28.3067C6.08661 27.951 6.17939 27.6804 6.36496 27.4871C6.55052 27.2938 6.80567 27.1623 7.13041 27.085C7.45515 27.0077 7.83402 26.9768 8.25927 26.9768H8.66906V26.8067C8.66906 26.6443 8.63813 26.4897 8.58401 26.335C8.52215 26.1804 8.42937 26.0567 8.29793 25.9562C8.16649 25.8557 7.98092 25.8015 7.7567 25.8015C7.53247 25.8015 7.35464 25.8247 7.23093 25.8634C7.10722 25.9098 7.0067 25.9562 6.93712 26.0026C6.8598 26.0489 6.79794 26.0799 6.73609 26.0799C6.62784 26.0799 6.53506 26.0258 6.4732 25.9175C6.41135 25.8093 6.38042 25.701 6.38042 25.585C6.38042 25.4691 6.45001 25.3763 6.59691 25.2835C6.74382 25.1907 6.92165 25.1211 7.13815 25.067C7.35464 25.0129 7.57113 24.9897 7.77989 24.9897C8.23607 24.9897 8.59947 25.0747 8.87782 25.2448C9.14844 25.4149 9.34947 25.6392 9.47318 25.9098C9.59689 26.1804 9.65874 26.4742 9.65874 26.7912V29.1185L9.65101 29.1262Z" fill="#8563FF"/>
<path d="M39.8289 0H37.347C33.7671 0 30.8677 2.89946 30.8677 6.47932V8.96126C30.8677 12.5411 33.7671 15.4406 37.347 15.4406H39.8289C43.4088 15.4406 46.3083 12.5411 46.3083 8.96126V6.47932C46.3083 2.89946 43.4088 0 39.8289 0ZM40.9733 10.9406C40.9114 11.0025 40.8263 11.0489 40.7336 11.0875C40.6408 11.1262 40.5403 11.1416 40.4475 11.1416C40.3702 11.1416 40.3006 11.1262 40.2387 11.0953C40.1769 11.0643 40.1382 11.0102 40.115 10.9406L39.7362 9.62619H37.432L37.0609 10.9406C37.0455 11.0179 36.9991 11.0643 36.9372 11.0953C36.8754 11.1262 36.798 11.1416 36.7207 11.1416C36.6357 11.1416 36.5429 11.1262 36.4424 11.0875C36.3419 11.0489 36.2645 11.0025 36.2027 10.9406C36.1408 10.8788 36.1099 10.8092 36.1099 10.7319C36.1099 10.7164 36.1099 10.6855 36.1176 10.6468L37.9655 4.6314C38.0042 4.52315 38.0815 4.4381 38.2052 4.38397C38.3289 4.32985 38.4527 4.29892 38.5918 4.29892C38.731 4.29892 38.8624 4.32985 38.9862 4.38397C39.1099 4.4381 39.1872 4.52315 39.2258 4.6314L41.066 10.6468C41.066 10.6468 41.0815 10.7087 41.0815 10.7319C41.0815 10.8092 41.0506 10.871 40.981 10.9329L40.9733 10.9406Z" fill="#FFA015"/>
<path d="M37.6557 8.82982H39.5114L38.5835 5.64429L37.6557 8.82982Z" fill="#FFA015"/>
</svg>
