<svg width="130" height="109" viewBox="0 0 130 109" fill="none" xmlns="http://www.w3.org/2000/svg">
<g clip-path="url(#clip0_57_10656)">
<path d="M68.6018 104.288L44.206 91.64C40.521 89.7283 41.1444 86.7221 45.4251 84.9212L86.6943 67.549C90.0606 66.136 95.699 66.136 99.3978 67.549L123.627 76.8308C127.88 78.4655 128.767 81.1807 125.456 82.8986L84.4223 104.274C80.1001 106.519 72.924 106.519 68.5879 104.274L68.6018 104.288Z" fill="#A594F7" stroke="#6748F9" stroke-width="3.63" stroke-linecap="round" stroke-linejoin="round"/>
<path d="M102.903 81.8596C105.604 82.9817 105.936 84.8519 103.595 86.0156L91.0164 92.2634C88.4535 93.5379 84.0897 93.5379 81.3745 92.2634L68.0475 86.0156C65.5539 84.8519 65.6648 82.9817 68.2415 81.8596L80.8619 76.3321C83.2308 75.2931 87.1236 75.2931 89.6172 76.3321L102.903 81.8596ZM104.357 81.153L91.0718 75.6671C87.7193 74.2818 82.4966 74.2818 79.3103 75.6671L66.6899 81.153C63.2127 82.6631 63.0188 85.1705 66.3851 86.7636L79.7121 93.0669C83.3971 94.8125 89.2986 94.8125 92.7758 93.0669L105.341 86.7636C108.513 85.1705 108.015 82.6631 104.357 81.153Z" fill="white"/>
<path d="M87.0956 80.585L93.1218 83.1756C93.5929 83.3834 93.8422 83.6466 93.8699 83.9098H99.2866C99.2173 83.4665 98.7879 83.0232 97.9982 82.6908L87.9961 78.4516C87.248 78.133 86.2921 77.9806 85.3501 77.9806L85.4886 80.2941C86.0705 80.2941 86.6523 80.3911 87.1095 80.585H87.0956Z" stroke="white" stroke-width="0.47" stroke-miterlimit="10"/>
<path d="M98.3309 85.1567C99.0375 84.8103 99.3561 84.367 99.2868 83.9237H93.8701C93.8979 84.1869 93.7039 84.464 93.2745 84.6718L85.946 88.1767L76.5534 83.9376L83.8819 80.6127C84.3113 80.4188 84.8793 80.3218 85.4611 80.3218L85.3226 78.0083C84.3806 78.0083 83.4386 78.1607 82.732 78.4793L70.4995 83.9376L86.1123 91.0998L98.3171 85.1705L98.3309 85.1567Z" stroke="white" stroke-width="0.47" stroke-miterlimit="10"/>
<path d="M87.0959 80.585C86.6388 80.3911 86.0569 80.2941 85.4751 80.2941C84.8933 80.2941 84.3253 80.3911 83.8958 80.585L76.5674 83.9099L85.96 88.149L93.2884 84.6441C93.7178 84.4363 93.9118 84.1731 93.8841 83.896C93.8564 83.6189 93.607 83.3696 93.136 83.1618L87.1098 80.5712L87.0959 80.585Z" stroke="white" stroke-width="0.47" stroke-miterlimit="10"/>
<path d="M76.5671 83.9237H70.5132" stroke="white" stroke-width="0.47" stroke-miterlimit="10"/>
<path d="M86.1259 91.0859L85.9458 88.1628" stroke="white" stroke-width="0.47" stroke-miterlimit="10"/>
<path d="M3.87932 70.292C2.5494 69.5993 1.91214 68.7127 2.03682 67.7707C2.14765 66.8979 2.88188 66.0251 4.17024 65.2494C4.94603 64.7783 5.90191 64.3489 6.98248 63.9887L47.462 50.4817C51.5349 49.124 57.6442 49.124 61.2184 50.4817L80.3222 57.7547C82.1508 58.4474 83.2453 59.3894 83.3977 60.4007C83.5223 61.2873 82.8989 62.1878 81.6106 62.922C81.2365 63.1436 80.8209 63.3376 80.3776 63.5177L39.1916 79.9755C34.1905 81.9704 26.9036 82.0674 22.803 80.1833C22.6645 80.1279 22.526 80.0586 22.3736 79.9755L3.87932 70.292Z" fill="#A594F7"/>
<path d="M79.006 58.2396C80.5714 58.8353 81.4026 59.6249 81.5135 60.4145C81.6104 61.1211 81.1117 61.8553 80.0311 62.4787C79.7402 62.6449 79.3939 62.8112 79.006 62.9636L37.8338 79.2967C33.7193 80.9314 27.7901 80.9868 24.4514 79.4629C24.3267 79.4075 24.2159 79.3521 24.1051 79.2967L5.58315 69.6963C4.44717 69.1145 3.9623 68.3802 4.04542 67.6321C4.12854 66.9256 4.72424 66.2052 5.76324 65.5541C6.38664 65.1801 7.14858 64.8199 8.07675 64.5151L48.584 50.9111C51.9365 49.789 56.9653 49.789 59.9022 50.9111L78.9921 58.2257M81.5827 57.2283L62.4789 50.0107C58.2675 48.4175 51.1053 48.4175 46.312 50.0107L5.90177 63.4484C4.61341 63.8779 3.50514 64.3766 2.57696 64.9307C1.05309 65.8451 0.166478 66.8841 0.0279445 67.9092C-0.138296 69.0313 0.595933 70.0703 2.17522 70.9015L20.6418 80.6543C20.808 80.7374 20.9881 80.8344 21.1543 80.9037C26.003 83.1341 34.6337 83.0232 40.549 80.6543L81.749 64.0718C82.2754 63.864 82.7603 63.6285 83.2036 63.3653C84.7136 62.4787 85.4478 61.412 85.2816 60.373C85.0876 59.1816 83.7854 58.0733 81.6243 57.256L81.5827 57.2283Z" fill="#6748F9"/>
<path d="M56.5913 71.8713L47.365 75.5286L24.4653 79.4768C24.3407 79.4214 24.2298 79.3659 24.119 79.3105L21.3345 77.8698L56.5913 71.8713Z" fill="#BEB9FC"/>
<path d="M80.0307 62.4925L12.8973 73.4921L10.002 71.996L81.513 60.4284C81.61 61.1349 81.1113 61.8691 80.0307 62.4925Z" fill="#BEB9FC"/>
<path d="M74.7251 56.6049L4.05908 67.646C4.1422 66.9395 4.7379 66.2191 5.7769 65.568L71.622 55.3996L74.7251 56.591V56.6049Z" fill="#BEB9FC"/>
<path d="M63.1438 52.1579L30.3252 57.062L38.8312 54.2082L60.2346 51.0497L63.1438 52.1579Z" fill="#BEB9FC"/>
<path d="M3.87932 64.1965C2.5494 63.5038 1.91214 62.6172 2.03682 61.6752C2.14765 60.8024 2.88188 59.9297 4.17024 59.1539C4.94603 58.6829 5.90191 58.2534 6.98248 57.8932L47.462 44.3862C51.5349 43.0286 57.6442 43.0286 61.2184 44.3862L80.3222 51.6592C82.1508 52.3519 83.2453 53.2939 83.3977 54.3052C83.5223 55.1918 82.8989 56.0923 81.6106 56.8265C81.2365 57.0482 80.8209 57.2421 80.3776 57.4222L39.1916 73.88C34.1905 75.8749 26.9036 75.9719 22.803 74.0878C22.6645 74.0324 22.526 73.9631 22.3736 73.88L3.87932 64.1965Z" fill="#A594F7"/>
<path d="M79.006 52.1441C80.5714 52.7398 81.4026 53.5294 81.5135 54.3191C81.6104 55.0256 81.1117 55.7598 80.0311 56.3832C79.7402 56.5494 79.3939 56.7157 79.006 56.8681L37.8338 73.2012C33.7193 74.8359 27.7901 74.8913 24.4514 73.3674C24.3267 73.312 24.2159 73.2566 24.1051 73.2012L5.58315 63.6008C4.44717 63.019 3.9623 62.2847 4.04542 61.5367C4.12854 60.8301 4.72424 60.1098 5.76324 59.4587C6.38664 59.0846 7.14858 58.7244 8.07675 58.4197L48.584 44.8156C51.9365 43.6935 56.9653 43.6935 59.9022 44.8156L78.9921 52.1302M81.5827 51.1328L62.4789 43.9152C58.2675 42.322 51.1053 42.322 46.312 43.9152L5.90177 57.3391C4.61341 57.7685 3.50514 58.2673 2.57696 58.8214C1.05309 59.7357 0.166478 60.7747 0.0279445 61.7999C-0.138296 62.922 0.595933 63.961 2.17522 64.7922L20.6418 74.545C20.808 74.6281 20.9881 74.7251 21.1543 74.7943C26.003 77.0247 34.6337 76.9139 40.549 74.545L81.749 57.9625C82.2754 57.7547 82.7603 57.5192 83.2036 57.256C84.7136 56.3694 85.4478 55.3026 85.2816 54.2636C85.0876 53.0723 83.7854 51.964 81.6243 51.1466L81.5827 51.1328Z" fill="#6748F9"/>
<path d="M56.5913 65.7619L47.365 69.4192L24.4653 73.3674C24.3407 73.312 24.2298 73.2566 24.119 73.2012L21.3345 71.7604L56.5913 65.7619Z" fill="#BEB9FC"/>
<path d="M80.0307 56.3832L12.8973 67.3828L10.002 65.8866L81.513 54.3191C81.61 55.0256 81.1113 55.7598 80.0307 56.3832Z" fill="#BEB9FC"/>
<path d="M74.7251 50.4955L4.05908 61.5367C4.1422 60.8301 4.7379 60.1098 5.7769 59.4587L71.622 49.2903L74.7251 50.4817V50.4955Z" fill="#BEB9FC"/>
<path d="M63.1438 46.0624L30.3252 50.9665L38.8312 48.0989L60.2346 44.9403L63.1438 46.0624Z" fill="#BEB9FC"/>
<path d="M3.87932 58.0872C2.5494 57.3945 1.91214 56.5079 2.03682 55.5659C2.14765 54.6931 2.88188 53.8203 4.17024 53.0445C4.94603 52.5735 5.90191 52.1441 6.98248 51.7839L47.462 38.2769C51.5349 36.9192 57.6442 36.9192 61.2184 38.2769L80.3222 45.5499C82.1508 46.2425 83.2453 47.1846 83.3977 48.1959C83.5223 49.0825 82.8989 49.983 81.6106 50.7172C81.2365 50.9388 80.8209 51.1328 80.3776 51.3129L39.1916 67.7707C34.1905 69.7656 26.9036 69.8625 22.803 67.9785C22.6645 67.9231 22.526 67.8538 22.3736 67.7707L3.87932 58.0872Z" fill="#A594F7"/>
<path d="M79.006 46.0347C80.5714 46.6304 81.4026 47.4201 81.5135 48.2097C81.6104 48.9162 81.1117 49.6505 80.0311 50.2739C79.7402 50.4401 79.3939 50.6064 79.006 50.7587L37.8338 67.0919C33.7193 68.7266 27.7901 68.782 24.4514 67.2581C24.3267 67.2027 24.2159 67.1473 24.1051 67.0919L5.58315 57.4915C4.44717 56.9096 3.9623 56.1754 4.04542 55.4273C4.12854 54.7208 4.72424 54.0004 5.76324 53.3493C6.38664 52.9753 7.14858 52.6151 8.07675 52.3103L48.584 38.7063C51.9365 37.5842 56.9653 37.5842 59.9022 38.7063L78.9921 46.0209M81.5827 45.0234L62.4789 37.8058C58.2675 36.2127 51.1053 36.2127 46.312 37.8058L5.90177 51.2298C4.61341 51.6592 3.50514 52.1579 2.57696 52.7121C1.05309 53.6264 0.166478 54.6654 0.0279445 55.6905C-0.138296 56.8127 0.595933 57.8517 2.17522 58.6829L20.6418 68.4356C20.808 68.5188 20.9881 68.6157 21.1543 68.685C26.003 70.9154 34.6337 70.8046 40.549 68.4356L81.749 51.8532C82.2754 51.6454 82.7603 51.4098 83.2036 51.1466C84.7136 50.26 85.4478 49.1933 85.2816 48.1543C85.0876 46.9629 83.7854 45.8546 81.6243 45.0373L81.5827 45.0234Z" fill="#6748F9"/>
<path d="M56.5913 59.6665L47.365 63.3237L24.4653 67.272C24.3407 67.2165 24.2298 67.1611 24.119 67.1057L21.3345 65.665L56.5913 59.6665Z" fill="#BEB9FC"/>
<path d="M80.0307 50.2877L12.8973 61.2873L10.002 59.7911L81.513 48.2236C81.61 48.9301 81.1113 49.6643 80.0307 50.2877Z" fill="#BEB9FC"/>
<path d="M74.7251 44.3862L4.05908 55.4412C4.1422 54.7347 4.7379 54.0143 5.7769 53.3632L71.622 43.1948L74.7251 44.3862Z" fill="#BEB9FC"/>
<path d="M63.1438 39.9531L30.3252 44.8572L38.8312 42.0034L60.2346 38.831L63.1438 39.9531Z" fill="#BEB9FC"/>
<path d="M3.87932 51.9778C2.5494 51.2852 1.91214 50.3986 2.03682 49.4565C2.14765 48.5838 2.88188 47.711 4.17024 46.9352C4.94603 46.4642 5.90191 46.0347 6.98248 45.6746L47.462 32.1675C51.5349 30.8099 57.6442 30.8099 61.2184 32.1675L80.3222 39.4405C82.1508 40.1332 83.2453 41.0752 83.3977 42.0865C83.5223 42.9731 82.8989 43.8736 81.6106 44.6078C81.2365 44.8295 80.8209 45.0234 80.3776 45.2035L39.1916 61.6613C34.1905 63.6562 26.9036 63.7532 22.803 61.8691C22.6645 61.8137 22.526 61.7445 22.3736 61.6613L3.87932 51.9778Z" fill="#A594F7"/>
<path d="M79.006 39.9254C80.5714 40.5211 81.4026 41.3107 81.5135 42.1004C81.6104 42.8069 81.1117 43.5411 80.0311 44.1645C79.7402 44.3308 79.3939 44.497 79.006 44.6494L37.8338 60.9825C33.7193 62.6172 27.7901 62.6726 24.4514 61.1488C24.3267 61.0934 24.2159 61.0379 24.1051 60.9825L5.58315 51.3821C4.44717 50.8003 3.9623 50.0661 4.04542 49.318C4.12854 48.6115 4.72424 47.8911 5.76324 47.24C6.38664 46.8659 7.14858 46.5058 8.07675 46.201L48.584 32.597C51.9365 31.4749 56.9653 31.4749 59.9022 32.597L78.9921 39.9116M81.5827 38.9141L62.4789 31.6965C58.2675 30.1034 51.1053 30.1034 46.312 31.6965L5.90177 45.1343C4.61341 45.5637 3.50514 46.0625 2.57696 46.6166C1.05309 47.5309 0.166478 48.5699 0.0279445 49.5951C-0.138296 50.7172 0.595933 51.7562 2.17522 52.5874L20.6418 62.3402C20.808 62.4233 20.9881 62.5203 21.1543 62.5895C26.003 64.8199 34.6337 64.7091 40.549 62.3402L81.749 45.7577C82.2754 45.5499 82.7603 45.3144 83.2036 45.0512C84.7136 44.1645 85.4478 43.0978 85.2816 42.0588C85.0876 40.8674 83.7854 39.7592 81.6243 38.9418L81.5827 38.9141Z" fill="#6748F9"/>
<path d="M56.5913 53.5571L47.365 57.2144L24.4653 61.1626C24.3407 61.1072 24.2298 61.0518 24.119 60.9964L21.3345 59.5556L56.5913 53.5571Z" fill="#BEB9FC"/>
<path d="M80.0307 44.1784L12.8973 55.178L10.002 53.6818L81.513 42.1142C81.61 42.8208 81.1113 43.555 80.0307 44.1784Z" fill="#BEB9FC"/>
<path d="M74.7251 38.2907L4.05908 49.3318C4.1422 48.6253 4.7379 47.9049 5.7769 47.2538L71.622 37.0855L74.7251 38.2769V38.2907Z" fill="#BEB9FC"/>
<path d="M63.1438 33.8438L30.3252 38.7479L38.8312 35.8941L60.2346 32.7355L63.1438 33.8438Z" fill="#BEB9FC"/>
<path d="M3.87932 45.8824C2.5494 45.1897 1.91214 44.3031 2.03682 43.361C2.14765 42.4883 2.88188 41.6155 4.17024 40.8397C4.94603 40.3687 5.90191 39.9393 6.98248 39.5791L47.462 26.072C51.5349 24.7144 57.6442 24.7144 61.2184 26.072L80.3222 33.3451C82.1508 34.0377 83.2453 34.9798 83.3977 35.9911C83.5223 36.8777 82.8989 37.7781 81.6106 38.5124C81.2365 38.734 80.8209 38.928 80.3776 39.1081L39.1916 55.5659C34.1905 57.5607 26.9036 57.6577 22.803 55.7737C22.6645 55.7182 22.526 55.649 22.3736 55.5659L3.87932 45.8824Z" fill="#A594F7"/>
<path d="M79.006 33.8299C80.5714 34.4256 81.4026 35.2153 81.5135 36.0049C81.6104 36.7114 81.1117 37.4457 80.0311 38.0691C79.7402 38.2353 79.3939 38.4015 79.006 38.5539L37.8338 54.887C33.7193 56.5217 27.7901 56.5772 24.4514 55.0533C24.3267 54.9979 24.2159 54.9425 24.1051 54.887L5.58315 45.2867C4.44717 44.7048 3.9623 43.9706 4.04542 43.2225C4.12854 42.516 4.72424 41.7956 5.76324 41.1445C6.38664 40.7705 7.14858 40.4103 8.07675 40.1055L48.584 26.5015C51.9365 25.3794 56.9653 25.3794 59.9022 26.5015L78.9921 33.8161M81.5827 32.8186L62.4789 25.601C58.2675 24.0079 51.1053 24.0079 46.312 25.601L5.90177 39.0249C4.61341 39.4544 3.50514 39.9531 2.57696 40.5072C1.05309 41.4216 0.166478 42.4606 0.0279445 43.4857C-0.138296 44.6078 0.595933 45.6468 2.17522 46.4781L20.6418 56.2308C20.808 56.3139 20.9881 56.4109 21.1543 56.4802C26.003 58.7106 34.6337 58.5997 40.549 56.2308L81.749 39.6483C82.2754 39.4405 82.7603 39.205 83.2036 38.9418C84.7136 38.0552 85.4478 36.9885 85.2816 35.9495C85.0876 34.7581 83.7854 33.6498 81.6243 32.8325L81.5827 32.8186Z" fill="#6748F9"/>
<path d="M56.5913 47.4478L47.365 51.1051L24.4653 55.0533C24.3407 54.9979 24.2298 54.9425 24.119 54.887L21.3345 53.4463L56.5913 47.4478Z" fill="#BEB9FC"/>
<path d="M80.0307 38.0691L12.8973 49.0686L10.002 47.5725L81.513 36.0049C81.61 36.7114 81.1113 37.4457 80.0307 38.0691Z" fill="#BEB9FC"/>
<path d="M74.7251 32.1814L4.05908 43.2225C4.1422 42.516 4.7379 41.7956 5.7769 41.1445L71.622 30.9761L74.7251 32.1675V32.1814Z" fill="#BEB9FC"/>
<path d="M63.1438 27.7483L30.3252 32.6524L38.8312 29.7847L60.2346 26.6262L63.1438 27.7483Z" fill="#BEB9FC"/>
<path d="M3.87932 39.773C2.5494 39.0804 1.91214 38.1937 2.03682 37.2517C2.14765 36.3789 2.88188 35.5062 4.17024 34.7304C4.94603 34.2594 5.90191 33.8299 6.98248 33.4697L47.462 19.9627C51.5349 18.6051 57.6442 18.6051 61.2184 19.9627L80.3222 27.2357C82.1508 27.9284 83.2453 28.8704 83.3977 29.8817C83.5223 30.7683 82.8989 31.6688 81.6106 32.403C81.2365 32.6247 80.8209 32.8186 80.3776 32.9987L39.1916 49.4565C34.1905 51.4514 26.9036 51.5484 22.803 49.6643C22.6645 49.6089 22.526 49.5396 22.3736 49.4565L3.87932 39.773Z" fill="#A594F7"/>
<path d="M79.006 27.7206C80.5714 28.3163 81.4026 29.1059 81.5135 29.8956C81.6104 30.6021 81.1117 31.3363 80.0311 31.9597C79.7402 32.126 79.3939 32.2922 79.006 32.4446L37.8338 48.7777C33.7193 50.4124 27.7901 50.4678 24.4514 48.9439C24.3267 48.8885 24.2159 48.8331 24.1051 48.7777L5.58315 39.1773C4.44717 38.5955 3.9623 37.8613 4.04542 37.1132C4.12854 36.4067 4.72424 35.6863 5.76324 35.0352C6.38664 34.6611 7.14858 34.3009 8.07675 33.9962L48.584 20.3922C51.9365 19.27 56.9653 19.27 59.9022 20.3922L78.9921 27.7067M81.5827 26.7093L62.4789 19.4917C58.2675 17.8986 51.1053 17.8986 46.312 19.4917L5.90177 32.9156C4.61341 33.3451 3.50514 33.8438 2.57696 34.3979C1.05309 35.3122 0.166478 36.3512 0.0279445 37.3764C-0.138296 38.4985 0.595933 39.5375 2.17522 40.3687L20.6418 50.1215C20.808 50.2046 20.9881 50.3016 21.1543 50.3708C26.003 52.6012 34.6337 52.4904 40.549 50.1215L81.749 33.539C82.2754 33.3312 82.7603 33.0957 83.2036 32.8325C84.7136 31.9459 85.4478 30.8792 85.2816 29.8402C85.0876 28.6488 83.7854 27.5405 81.6243 26.7231L81.5827 26.7093Z" fill="#6748F9"/>
<path d="M56.5913 41.3523L47.365 45.0096L24.4653 48.9578C24.3407 48.9024 24.2298 48.847 24.119 48.7916L21.3345 47.3508L56.5913 41.3523Z" fill="#BEB9FC"/>
<path d="M80.0307 31.9736L12.8973 42.9731L10.002 41.477L81.513 29.9094C81.61 30.6159 81.1113 31.3502 80.0307 31.9736Z" fill="#BEB9FC"/>
<path d="M74.7251 26.072L4.05908 37.127C4.1422 36.4205 4.7379 35.7001 5.7769 35.049L71.622 24.8806L74.7251 26.072Z" fill="#BEB9FC"/>
<path d="M63.1438 21.639L30.3252 26.5431L38.8312 23.6893L60.2346 20.5168L63.1438 21.639Z" fill="#BEB9FC"/>
<path d="M3.87932 33.6637C2.5494 32.971 1.91214 32.0844 2.03682 31.1424C2.14765 30.2696 2.88188 29.3968 4.17024 28.6211C4.94603 28.15 5.90191 27.7206 6.98248 27.3604L47.462 13.8534C51.5349 12.4957 57.6442 12.4957 61.2184 13.8534L80.3222 21.1264C82.1508 21.8191 83.2453 22.7611 83.3977 23.7724C83.5223 24.659 82.8989 25.5595 81.6106 26.2937C81.2365 26.5153 80.8209 26.7093 80.3776 26.8894L39.1916 43.3472C34.1905 45.3421 26.9036 45.439 22.803 43.555C22.6645 43.4996 22.526 43.4303 22.3736 43.3472L3.87932 33.6637Z" fill="#A594F7"/>
<path d="M79.006 21.6113C80.5714 22.2069 81.4026 22.9966 81.5135 23.7862C81.6104 24.4928 81.1117 25.227 80.0311 25.8504C79.7402 26.0166 79.3939 26.1829 79.006 26.3353L37.8338 42.6684C33.7193 44.3031 27.7901 44.3585 24.4514 42.8346C24.3267 42.7792 24.2159 42.7238 24.1051 42.6684L5.58315 33.068C4.44717 32.4861 3.9623 31.7519 4.04542 31.0038C4.12854 30.2973 4.72424 29.5769 5.76324 28.9258C6.38664 28.5518 7.14858 28.1916 8.07675 27.8868L48.584 14.2828C51.9365 13.1607 56.9653 13.1607 59.9022 14.2828L78.9921 21.5974M81.5827 20.6L62.4789 13.3824C58.2675 11.7892 51.1053 11.7892 46.312 13.3824L5.90177 26.8201C4.61341 27.2496 3.50514 27.7483 2.57696 28.3024C1.05309 29.2168 0.166478 30.2558 0.0279445 31.2809C-0.138296 32.403 0.595933 33.442 2.17522 34.2732L20.6418 44.026C20.808 44.1091 20.9881 44.2061 21.1543 44.2754C26.003 46.5058 34.6337 46.3949 40.549 44.026L81.749 27.4435C82.2754 27.2357 82.7603 27.0002 83.2036 26.737C84.7136 25.8504 85.4478 24.7837 85.2816 23.7447C85.0876 22.5533 83.7854 21.445 81.6243 20.6277L81.5827 20.6Z" fill="#6748F9"/>
<path d="M56.5913 35.243L47.365 38.9003L24.4653 42.8485C24.3407 42.7931 24.2298 42.7376 24.119 42.6822L21.3345 41.2415L56.5913 35.243Z" fill="#BEB9FC"/>
<path d="M80.0307 25.8642L12.8973 36.8638L10.002 35.3676L81.513 23.8001C81.61 24.5066 81.1113 25.2408 80.0307 25.8642Z" fill="#BEB9FC"/>
<path d="M74.7251 19.9766L4.05908 31.0177C4.1422 30.3112 4.7379 29.5908 5.7769 28.9397L71.622 18.7713L74.7251 19.9627V19.9766Z" fill="#BEB9FC"/>
<path d="M63.1438 15.5296L30.3252 20.4337L38.8312 17.5799L60.2346 14.4214L63.1438 15.5296Z" fill="#BEB9FC"/>
<path d="M3.87932 27.5682C2.5494 26.8755 1.91214 25.9889 2.03682 25.0469C2.14765 24.1741 2.88188 23.3014 4.17024 22.5256C4.94603 22.0546 5.90191 21.6251 6.98248 21.2649L47.462 7.74403C51.5349 6.3864 57.6442 6.3864 61.2184 7.74403L80.3222 15.017C82.1508 15.7097 83.2453 16.6517 83.3977 17.663C83.5223 18.5497 82.8989 19.4501 81.6106 20.1844C81.2365 20.406 80.8209 20.6 80.3776 20.7801L39.1916 37.2379C34.1905 39.2327 26.9036 39.3297 22.803 37.4457C22.6645 37.3902 22.526 37.321 22.3736 37.2379L3.87932 27.5682Z" fill="#A594F7"/>
<path d="M79.006 15.5158C80.5714 16.1115 81.4026 16.9011 81.5135 17.6908C81.6104 18.3973 81.1117 19.1315 80.0311 19.7549C79.7402 19.9211 79.3939 20.0874 79.006 20.2398L37.8338 36.5729C33.7193 38.2076 27.7901 38.263 24.4514 36.7391C24.3267 36.6837 24.2159 36.6283 24.1051 36.5729L5.58315 26.9725C4.44717 26.3907 3.9623 25.6564 4.04542 24.9084C4.12854 24.2018 4.72424 23.4815 5.76324 22.8304C6.38664 22.4563 7.14858 22.0961 8.07675 21.7913L48.5979 8.18734C51.9504 7.06522 56.9791 7.06522 59.9161 8.18734L79.006 15.5019M81.5966 14.5045L62.4928 7.28687C58.2814 5.69373 51.1192 5.69373 46.3259 7.28687L5.90177 20.7108C4.61341 21.1402 3.50514 21.639 2.57696 22.1931C1.05309 23.1074 0.166478 24.1464 0.0279445 25.1716C-0.138296 26.2937 0.595933 27.3327 2.17522 28.1639L20.6418 37.9167C20.808 37.9998 20.9881 38.0968 21.1543 38.166C26.003 40.3964 34.6337 40.2856 40.549 37.9167L81.749 21.3342C82.2754 21.1264 82.7603 20.8909 83.2036 20.6277C84.7136 19.741 85.4478 18.6743 85.2816 17.6353C85.0876 16.4439 83.7854 15.3357 81.6243 14.5183L81.5966 14.5045Z" fill="#6748F9"/>
<path d="M56.5913 29.1336L47.365 32.7909L24.4653 36.7391C24.3407 36.6837 24.2298 36.6283 24.119 36.5729L21.3345 35.1321L56.5913 29.1336Z" fill="#BEB9FC"/>
<path d="M80.0307 19.7549L12.8973 30.7683L10.002 29.2722L81.513 17.6908C81.61 18.3973 81.1113 19.1315 80.0307 19.7549Z" fill="#BEB9FC"/>
<path d="M74.7251 13.8672L4.05908 24.9084C4.1422 24.2018 4.7379 23.4815 5.7769 22.8303L71.622 12.662L74.7251 13.8534V13.8672Z" fill="#BEB9FC"/>
<path d="M63.1438 9.43414L30.3252 14.3382L38.8312 11.4706L60.2346 8.31202L63.1438 9.43414Z" fill="#BEB9FC"/>
<path d="M3.87932 21.4589C2.5494 20.7662 1.91214 19.8796 2.03682 18.9376C2.14765 18.0648 2.88188 17.192 4.17024 16.4162C4.94603 15.9452 5.90191 15.5158 6.98248 15.1556L47.462 1.6347C51.5349 0.277067 57.6442 0.277067 61.2184 1.6347L80.3222 8.90771C82.1508 9.60038 83.2453 10.5424 83.3977 11.5537C83.5223 12.4403 82.8989 13.3408 81.6106 14.075C81.2365 14.2967 80.8209 14.4906 80.3776 14.6707L39.1916 31.1285C34.1905 33.1234 26.9036 33.2204 22.803 31.3363C22.6645 31.2809 22.526 31.2116 22.3736 31.1285L3.87932 21.4589Z" fill="#A594F7"/>
<path d="M79.006 9.40644C80.5714 10.0021 81.4026 10.7918 81.5135 11.5814C81.6104 12.2879 81.1117 13.0222 80.0311 13.6456C79.7402 13.8118 79.3939 13.978 79.006 14.1304L37.8338 30.4636C33.7193 32.0983 27.7901 32.1537 24.4514 30.6298C24.3267 30.5744 24.2159 30.519 24.1051 30.4636L5.58315 20.8632C4.44717 20.2813 3.9623 19.5471 4.04542 18.799C4.12854 18.0925 4.72424 17.3721 5.76324 16.721C6.38664 16.347 7.14858 15.9868 8.07675 15.682L48.5979 2.09186C51.9504 0.969735 56.9791 0.969735 59.9161 2.09186L79.006 9.40644ZM81.5966 8.40899L62.5066 1.19139C58.2952 -0.401748 51.133 -0.401748 46.3398 1.19139L5.90177 14.6014C4.61341 15.0309 3.50514 15.5296 2.57696 16.0838C1.05309 17.0119 0.166478 18.0371 0.0279445 19.0622C-0.138296 20.1844 0.595933 21.2234 2.17522 22.0546L20.6418 31.8073C20.808 31.8905 20.9881 31.9874 21.1543 32.0567C26.003 34.2871 34.6337 34.1763 40.549 31.8073L81.749 15.2249C82.2754 15.0171 82.7603 14.7815 83.2036 14.5183C84.7136 13.6317 85.4478 12.565 85.2816 11.526C85.0876 10.3346 83.7854 9.22634 81.6243 8.40899H81.5966Z" fill="#6748F9"/>
<path d="M56.5913 23.0381L47.365 26.6954L24.4653 30.6437C24.3407 30.5882 24.2298 30.5328 24.119 30.4774L21.3345 29.0367L56.5913 23.0381Z" fill="#BEB9FC"/>
<path d="M80.0307 13.6594L12.8973 24.659L10.002 23.1628L81.513 11.5953C81.61 12.3018 81.1113 13.036 80.0307 13.6594Z" fill="#BEB9FC"/>
<path d="M74.7251 7.75788L4.05908 18.8129C4.1422 18.1063 4.7379 17.386 5.7769 16.7349L71.622 6.56649L74.7251 7.75788Z" fill="#BEB9FC"/>
<path d="M63.1438 3.32481L30.3252 8.2289L38.8312 5.37511L60.2346 2.20268L63.1438 3.32481Z" fill="#BEB9FC"/>
</g>
<defs>
<clipPath id="clip0_57_10656">
<rect width="130" height="108.5" fill="white"/>
</clipPath>
</defs>
</svg>
