<svg width="30" height="30" viewBox="0 0 30 30" fill="none" xmlns="http://www.w3.org/2000/svg">
<path d="M15.09 0.000404031C6.76522 -0.0595944 0.060398 6.57023 0.000399547 14.865C-0.0595989 23.2948 6.64522 30.0596 15.03 29.9996C23.2948 29.9996 29.9996 23.3098 29.9996 15C29.9996 6.69023 23.4148 0.0604024 15.09 0.000404031ZM20.8948 17.3849H17.3849V20.8948C17.3849 22.2148 16.32 23.2948 14.985 23.2948C13.65 23.2948 12.5851 22.2298 12.5851 20.8948V17.3849H9.07515C7.75519 17.3849 6.67522 16.32 6.67522 14.985C6.67522 13.65 7.74019 12.5851 9.07515 12.5851H12.5851V9.07516C12.5851 7.7552 13.65 6.67523 14.985 6.67523C16.32 6.67523 17.3849 7.7402 17.3849 9.07516V12.5851H20.8948C22.2148 12.5851 23.2948 13.65 23.2948 14.985C23.2948 16.32 22.2298 17.3849 20.8948 17.3849Z" fill="#CE912E"/>
</svg>
