<svg width="130" height="136" viewBox="0 0 130 136" fill="none" xmlns="http://www.w3.org/2000/svg">
<g clip-path="url(#clip0_57_10561)">
<path d="M58.7912 6.7195H42.521C39.859 6.7195 37.7009 8.87755 37.7009 11.5396V40.4962C37.7009 43.1583 39.859 45.3163 42.521 45.3163H58.7912C61.4533 45.3163 63.6113 43.1583 63.6113 40.4962V11.5396C63.6113 8.87755 61.4533 6.7195 58.7912 6.7195Z" fill="#A594F7" stroke="#6748F9" stroke-width="1.18" stroke-linecap="round" stroke-linejoin="round"/>
<path d="M55.082 18.4383C56.8201 18.4383 58.2177 19.8539 58.2177 21.5741V30.4438C58.2177 32.1819 56.8021 33.5796 55.082 33.5796H46.2122C44.4741 33.5796 43.0764 32.164 43.0764 30.4438V21.5741C43.0764 19.836 44.492 18.4383 46.2122 18.4383H55.082ZM55.082 17.3453H46.2122C43.8649 17.3453 41.9834 19.2447 41.9834 21.5741V30.4438C41.9834 32.7912 43.8828 34.6726 46.2122 34.6726H55.082C57.4293 34.6726 59.3108 32.7733 59.3108 30.4438V21.5741C59.3108 19.2267 57.4114 17.3453 55.082 17.3453Z" fill="white"/>
<path d="M48.649 22.8822H52.6628C52.9674 22.8822 53.2541 23.0076 53.4512 23.2047L55.2969 21.3591C54.9564 21.0186 54.4905 20.8215 53.9888 20.8215H47.3051C46.7855 20.8215 46.3375 21.0365 45.9971 21.3591L47.8427 23.2047C48.0398 23.0076 48.3265 22.8822 48.6311 22.8822H48.649Z" stroke="white" stroke-width="0.15" stroke-miterlimit="10"/>
<path d="M55.8525 22.6671C55.8525 22.1475 55.6374 21.6995 55.3149 21.3591L53.4693 23.2047C53.6664 23.4018 53.7918 23.6885 53.7918 23.9931V29.1178H47.5382V23.9931C47.5382 23.6885 47.6636 23.4018 47.8607 23.2047L46.0151 21.3591C45.6746 21.6995 45.4775 22.1654 45.4775 22.6671V31.1964H55.8704V22.6671H55.8525Z" stroke="white" stroke-width="0.15" stroke-miterlimit="10"/>
<path d="M48.649 22.8822C48.3444 22.8822 48.0577 23.0076 47.8606 23.2047C47.6635 23.4018 47.5381 23.6885 47.5381 23.9931V29.1179H53.7917V23.9931C53.7917 23.6885 53.6663 23.4018 53.4692 23.2047C53.2721 23.0076 52.9854 22.8822 52.6807 22.8822H48.667H48.649Z" stroke="white" stroke-width="0.15" stroke-miterlimit="10"/>
<path d="M47.5204 29.1358L45.4597 31.1964" stroke="white" stroke-width="0.15" stroke-miterlimit="10"/>
<path d="M55.8525 31.1964L53.7739 29.1358" stroke="white" stroke-width="0.15" stroke-miterlimit="10"/>
<path d="M23.8319 88.1241C22.0579 88.1241 20.3736 87.5686 18.958 86.5293C17.632 85.5617 16.6465 84.2536 16.0731 82.7305C15.7327 81.7988 15.5535 80.8132 15.5535 79.8277V39.0448C15.5535 34.4755 19.2626 30.7484 23.8319 30.7484H46.7499C48.8284 30.7484 50.8174 31.519 52.3405 32.9166C53.6665 34.1351 54.5624 35.7657 54.885 37.5217C54.9746 38.0234 55.0283 38.5431 55.0283 39.0269V79.8098C55.0283 84.1999 51.5879 87.8373 47.2158 88.0882C47.0724 88.0882 46.9111 88.0882 46.7499 88.0882H23.8319V88.1241Z" fill="#A594F7"/>
<path d="M46.7677 32.2536C48.5417 32.2536 50.1544 32.9345 51.3549 34.0455C52.4121 35.031 53.1647 36.3391 53.4514 37.8263C53.5231 38.2205 53.5589 38.6327 53.5589 39.0627V79.8456C53.5589 83.4652 50.7278 86.4397 47.162 86.6368C47.0365 86.6368 46.9111 86.6368 46.7677 86.6368H23.8318C22.3267 86.6368 20.9469 86.153 19.836 85.3287C18.7609 84.5582 17.9366 83.4831 17.4707 82.2109C17.2019 81.4762 17.0407 80.6699 17.0407 79.8277V39.0448C17.0407 35.2819 20.0868 32.2536 23.8318 32.2536H46.7498M46.7498 29.2791H23.8318C18.4383 29.2791 14.0662 33.6692 14.0662 39.0627V79.8456C14.0662 81.0103 14.2812 82.1751 14.6754 83.2681C15.3563 85.0779 16.521 86.6189 18.0799 87.7478C19.7643 88.9662 21.7533 89.6292 23.8318 89.6292H46.7498C46.9469 89.6292 47.162 89.6292 47.3591 89.6113C52.4838 89.3246 56.5334 85.042 56.5334 79.8635V39.0448C56.5334 38.4714 56.4797 37.8622 56.3722 37.2708C55.9959 35.1923 54.9207 33.2571 53.3618 31.8415C51.552 30.1751 49.2047 29.2612 46.7498 29.2612V29.2791Z" fill="#6748F9"/>
<path d="M53.5591 62.3391V71.1551L47.1621 86.6189C47.0367 86.6189 46.9112 86.6189 46.7679 86.6189H43.4888L53.5591 62.3212V62.3391Z" fill="#BEB9FC"/>
<path d="M53.4336 37.8084L33.2213 86.6368H29.5659L51.355 34.0455C52.4122 35.031 53.1648 36.3391 53.4515 37.8263L53.4336 37.8084Z" fill="#BEB9FC"/>
<path d="M41.8222 32.2536L19.836 85.3287C18.7608 84.5582 17.9366 83.4831 17.4707 82.2109L38.1668 32.2536H41.8222Z" fill="#BEB9FC"/>
<path d="M27.8816 32.2536L17.0408 58.4328V49.6347L24.2441 32.2536H27.8816Z" fill="#BEB9FC"/>
<path d="M97.2984 133.691C95.5245 133.691 93.8401 133.136 92.4246 132.096C91.1165 131.147 90.1131 129.821 89.5397 128.298C89.1992 127.366 89.02 126.38 89.02 125.395V84.612C89.02 80.0427 92.7292 76.3336 97.2984 76.3336H120.216C122.295 76.3336 124.284 77.1041 125.807 78.5017C127.133 79.7202 128.029 81.3508 128.352 83.1068C128.441 83.6265 128.495 84.1282 128.495 84.612V125.395C128.495 129.785 125.054 133.422 120.682 133.673C120.539 133.673 120.378 133.673 120.216 133.673H97.2984V133.691Z" fill="#A594F7"/>
<path d="M120.216 77.8208C121.99 77.8208 123.603 78.5017 124.804 79.6127C125.861 80.5982 126.613 81.9063 126.9 83.3935C126.972 83.7877 127.008 84.1999 127.008 84.6299V125.413C127.008 129.032 124.176 132.007 120.611 132.204C120.485 132.204 120.36 132.204 120.216 132.204H97.2984C95.7932 132.204 94.4135 131.72 93.3025 130.896C92.2274 130.125 91.4032 129.05 90.9373 127.778C90.6685 127.043 90.5072 126.237 90.5072 125.395V84.612C90.5072 80.8491 93.5534 77.8208 97.2984 77.8208H120.216ZM120.216 74.8463H97.2984C91.9049 74.8463 87.5327 79.2364 87.5327 84.6299V125.413C87.5327 126.578 87.7477 127.742 88.142 128.835C88.8229 130.645 89.9876 132.186 91.5465 133.315C93.2309 134.533 95.2198 135.196 97.2984 135.196H120.216C120.413 135.196 120.629 135.196 120.826 135.179C125.95 134.892 130 130.609 130 125.431V84.6478C130 84.0744 129.946 83.4652 129.839 82.8739C129.462 80.7953 128.387 78.8601 126.828 77.4445C125.019 75.7781 122.671 74.8642 120.216 74.8642V74.8463Z" fill="#6748F9"/>
<path d="M127.008 107.906V116.722L120.611 132.186C120.485 132.186 120.36 132.186 120.217 132.186H116.938L127.008 107.888V107.906Z" fill="#BEB9FC"/>
<path d="M126.9 83.3756L106.688 132.204H103.032L124.822 79.6127C125.879 80.5982 126.631 81.9063 126.918 83.3935L126.9 83.3756Z" fill="#BEB9FC"/>
<path d="M115.289 77.8208L93.3025 130.896C92.2274 130.125 91.4031 129.05 90.9373 127.778L111.633 77.8208H115.289Z" fill="#BEB9FC"/>
<path d="M101.348 77.8208L90.5073 104V95.184L97.6927 77.8208H101.348Z" fill="#BEB9FC"/>
<path d="M93.9657 58.8449C92.1917 58.8449 90.5074 58.2895 89.0918 57.2502C87.7658 56.2826 86.7803 54.9745 86.2069 53.4514C85.8664 52.5196 85.6873 51.5341 85.6873 50.5486V9.7836C85.6873 5.21433 89.3964 1.50517 93.9657 1.50517H116.884C118.962 1.50517 120.951 2.27567 122.474 3.67333C123.8 4.8918 124.696 6.5224 125.019 8.27843C125.108 8.79807 125.162 9.29979 125.162 9.7836V50.5665C125.162 54.9566 121.722 58.5941 117.35 58.8449C117.206 58.8449 117.045 58.8449 116.884 58.8449H93.9657Z" fill="#A594F7"/>
<path d="M116.884 2.9745C118.658 2.9745 120.27 3.65541 121.471 4.76637C122.528 5.7519 123.281 7.05996 123.567 8.54721C123.639 8.94142 123.675 9.35355 123.675 9.7836V50.5665C123.675 54.1861 120.844 57.1606 117.278 57.3577C117.152 57.3577 117.027 57.3577 116.884 57.3577H93.9656C92.4605 57.3577 91.0807 56.8739 89.9698 56.0496C88.8946 55.2791 88.0704 54.204 87.6045 52.9318C87.3357 52.1971 87.1745 51.3908 87.1745 50.5486V9.7836C87.1745 6.02068 90.2206 2.99242 93.9656 2.99242H116.884M116.884 0.0179187H93.9656C88.5721 0.0179187 84.2 4.40799 84.2 9.80152V50.5665C84.2 51.7312 84.415 52.8959 84.8092 53.989C85.4901 55.7988 86.6548 57.3398 88.2137 58.4686C89.8981 59.6871 91.8871 60.3501 93.9656 60.3501H116.884C117.081 60.3501 117.296 60.3501 117.493 60.3322C122.618 60.0455 126.667 55.7629 126.667 50.5844V9.7836C126.667 9.2102 126.613 8.60096 126.506 8.00965C126.13 5.93108 125.055 3.99586 123.496 2.58029C121.686 0.913853 119.338 0 116.884 0V0.0179187Z" fill="#6748F9"/>
<path d="M123.693 33.06V41.8759L117.296 57.3398C117.17 57.3398 117.045 57.3398 116.902 57.3398H113.623L123.693 33.042V33.06Z" fill="#BEB9FC"/>
<path d="M123.567 8.52929L103.355 57.3577H99.6997L121.489 4.76637C122.546 5.75189 123.299 7.05996 123.585 8.54721L123.567 8.52929Z" fill="#BEB9FC"/>
<path d="M111.956 2.9745L89.9698 56.0496C88.8946 55.2791 88.0704 54.204 87.6045 52.9318L108.301 2.9745H111.956Z" fill="#BEB9FC"/>
<path d="M98.0154 2.9745L87.1746 29.1716V20.3556L94.3779 2.9745H98.0154Z" fill="#BEB9FC"/>
<path d="M84.6298 36.0524H54.3472C49.3793 36.0524 45.3521 40.0797 45.3521 45.0476V98.9469C45.3521 103.915 49.3793 107.942 54.3472 107.942H84.6298C89.5977 107.942 93.625 103.915 93.625 98.9469V45.0476C93.625 40.0797 89.5977 36.0524 84.6298 36.0524Z" fill="#A594F7" stroke="#6748F9" stroke-width="2.2" stroke-linecap="round" stroke-linejoin="round"/>
<path d="M77.749 57.8773C80.9743 57.8773 83.5905 60.4935 83.5905 63.7188V80.2398C83.5905 83.4652 80.9743 86.0813 77.749 86.0813H61.228C58.0026 86.0813 55.3865 83.4652 55.3865 80.2398V63.7188C55.3865 60.4935 58.0026 57.8773 61.228 57.8773H77.749ZM77.749 55.8346H61.228C56.8737 55.8346 53.3438 59.3646 53.3438 63.7188V80.2398C53.3438 84.5941 56.8737 88.1241 61.228 88.1241H77.749C82.1032 88.1241 85.6332 84.5941 85.6332 80.2398V63.7188C85.6332 59.3646 82.1032 55.8346 77.749 55.8346Z" fill="white"/>
<path d="M65.7614 66.1737H73.2514C73.8248 66.1737 74.3445 66.4066 74.7208 66.7829L78.1791 63.3246C77.5519 62.6974 76.6918 62.3212 75.7421 62.3212H63.3066C62.3569 62.3212 61.4968 62.7154 60.8696 63.3246L64.3279 66.7829C64.7042 66.4066 65.2239 66.1737 65.7973 66.1737H65.7614Z" stroke="white" stroke-width="0.28" stroke-miterlimit="10"/>
<path d="M79.1647 65.7795C79.1647 64.8298 78.7705 63.9697 78.1612 63.3425L74.7029 66.8008C75.0792 67.1771 75.3122 67.6968 75.3122 68.2702V77.8387H63.665V68.2702C63.665 67.6968 63.898 67.1771 64.2742 66.8008L60.8159 63.3425C60.1888 63.9697 59.8125 64.8298 59.8125 65.7795V81.6733H79.1647V65.7795Z" stroke="white" stroke-width="0.28" stroke-miterlimit="10"/>
<path d="M65.7614 66.1737C65.188 66.1737 64.6684 66.4066 64.2921 66.7829C63.9158 67.1592 63.6829 67.6788 63.6829 68.2522V77.8208H75.33V68.2522C75.33 67.6788 75.0971 67.1592 74.7208 66.7829C74.3445 66.4066 73.8248 66.1737 73.2514 66.1737H65.7614Z" stroke="white" stroke-width="0.28" stroke-miterlimit="10"/>
<path d="M63.6828 77.8208L59.8303 81.6733" stroke="white" stroke-width="0.28" stroke-miterlimit="10"/>
<path d="M79.1648 81.6733L75.3123 77.8208" stroke="white" stroke-width="0.28" stroke-miterlimit="10"/>
<path d="M27.6126 74.2012H7.3466C4.02148 74.2012 1.32593 76.8968 1.32593 80.2219V116.292C1.32593 119.617 4.02148 122.313 7.3466 122.313H27.6126C30.9378 122.313 33.6333 119.617 33.6333 116.292V80.2219C33.6333 76.8968 30.9378 74.2012 27.6126 74.2012Z" fill="#A594F7" stroke="#6748F9" stroke-width="1.47" stroke-linecap="round" stroke-linejoin="round"/>
<path d="M23.0075 88.8229C25.1577 88.8229 26.9137 90.5789 26.9137 92.7291V103.785C26.9137 105.935 25.1577 107.691 23.0075 107.691H11.9337C9.78347 107.691 8.02744 105.935 8.02744 103.785V92.7291C8.02744 90.5789 9.78347 88.8229 11.9337 88.8229H22.9895M22.9895 87.4611H11.9337C9.01297 87.4611 6.64771 89.8263 6.64771 92.7471V103.803C6.64771 106.724 9.01297 109.089 11.9337 109.089H22.9895C25.9103 109.089 28.2755 106.724 28.2755 103.803V92.7471C28.2755 89.8263 25.9103 87.4611 22.9895 87.4611Z" fill="white"/>
<path d="M14.962 94.3777H19.9613C20.3376 94.3777 20.696 94.5389 20.9468 94.7898L23.2583 92.4783C22.8462 92.0662 22.2549 91.7974 21.6277 91.7974H13.3135C12.6684 91.7974 12.095 92.0482 11.6829 92.4783L13.9944 94.7898C14.2452 94.5389 14.5857 94.3777 14.9799 94.3777H14.962Z" stroke="white" stroke-width="0.19" stroke-miterlimit="10"/>
<path d="M23.9392 94.1089C23.9392 93.4638 23.6884 92.8904 23.2583 92.4783L20.9468 94.7898C21.1977 95.0407 21.3589 95.3811 21.3589 95.7753V102.172H13.5822V95.7753C13.5822 95.399 13.7435 95.0407 13.9944 94.7898L11.6829 92.4783C11.2707 92.8904 11.002 93.4817 11.002 94.1089V104.753H23.9572V94.1089H23.9392Z" stroke="white" stroke-width="0.19" stroke-miterlimit="10"/>
<path d="M14.9619 94.3777C14.5856 94.3777 14.2272 94.5389 13.9763 94.7898C13.7255 95.0407 13.5642 95.3811 13.5642 95.7753V102.172H21.3588V95.7753C21.3588 95.399 21.1976 95.0407 20.9467 94.7898C20.6958 94.5389 20.3554 94.3777 19.9612 94.3777H14.9619Z" stroke="white" stroke-width="0.19" stroke-miterlimit="10"/>
<path d="M13.5822 102.154L11.002 104.735" stroke="white" stroke-width="0.19" stroke-miterlimit="10"/>
<path d="M23.9392 104.735L21.3589 102.154" stroke="white" stroke-width="0.19" stroke-miterlimit="10"/>
</g>
<defs>
<clipPath id="clip0_57_10561">
<rect width="130" height="135.178" fill="white"/>
</clipPath>
</defs>
</svg>
